<svg width="240" height="240" viewBox="0 0 240 240" fill="none" xmlns="http://www.w3.org/2000/svg">
<g clip-path="url(#clip0)">
<path d="M158.699 160.646L162.133 162.71L158.646 164.777L155.16 166.848L155.212 162.717L155.267 158.586L158.699 160.646Z" fill="#E0E0E0"/>
<path d="M23.6191 181.21V197.273H47.1091H73.0211V181.21H23.6191Z" fill="#F5F5F5"/>
<path d="M21.545 176.717V181.21H74.7472V176.717H47.1091H21.545Z" fill="#E0E0E0"/>
<path d="M48.1461 197.273H73.0212V181.21H74.7472V176.717H47.1091V180.792L48.1461 197.273Z" fill="#E0E0E0"/>
<path d="M40.5458 183.799H30.5269V186.217H40.5458V183.799Z" fill="#E0E0E0"/>
<path d="M42.1048 189.242H29.2393V194.347H42.1048V189.242Z" fill="white"/>
<path d="M31.2194 160.674V176.738H54.7094H80.6214V160.674H31.2194Z" fill="#F5F5F5"/>
<path d="M29.1453 156.182V160.674H82.3475V156.182H54.7093H29.1453Z" fill="#E0E0E0"/>
<path d="M55.7464 176.738H80.6214V160.674H82.3475V156.182H54.7094V160.26L55.7464 176.738Z" fill="#E0E0E0"/>
<path d="M48.1461 163.263H38.1272V165.682H48.1461V163.263Z" fill="#E0E0E0"/>
<path d="M49.7052 168.706H36.8396V173.811H49.7052V168.706Z" fill="white"/>
<path d="M221.015 102.255H162.84C161.327 102.255 160.101 103.482 160.101 104.994V138.966C160.101 140.479 161.327 141.705 162.84 141.705H221.015C222.528 141.705 223.754 140.479 223.754 138.966V104.994C223.754 103.482 222.528 102.255 221.015 102.255Z" fill="#E0E0E0"/>
<path d="M191.926 127.364C194.603 127.364 196.773 125.193 196.773 122.516C196.773 119.839 194.603 117.668 191.926 117.668C189.248 117.668 187.078 119.839 187.078 122.516C187.078 125.193 189.248 127.364 191.926 127.364Z" fill="#EBEBEB"/>
<path d="M190.76 123.932V121.072C190.76 121.04 190.768 121.009 190.784 120.981C190.8 120.954 190.823 120.931 190.851 120.915C190.878 120.899 190.909 120.891 190.941 120.891C190.973 120.891 191.004 120.899 191.031 120.915L193.586 122.356C193.614 122.372 193.638 122.395 193.654 122.422C193.67 122.45 193.679 122.482 193.679 122.514C193.679 122.547 193.67 122.578 193.654 122.606C193.638 122.634 193.614 122.657 193.586 122.673L191.028 124.092C191 124.108 190.969 124.115 190.938 124.115C190.906 124.114 190.875 124.105 190.848 124.089C190.821 124.073 190.799 124.05 190.783 124.023C190.768 123.995 190.76 123.964 190.76 123.932V123.932Z" fill="white"/>
<path d="M163.741 137.174V137.275H163.261V137.195L163.519 136.948C163.54 136.932 163.558 136.912 163.571 136.888C163.584 136.865 163.591 136.839 163.592 136.812C163.592 136.753 163.553 136.721 163.473 136.721C163.444 136.72 163.415 136.725 163.389 136.736C163.362 136.748 163.339 136.765 163.32 136.788L163.237 136.721C163.267 136.686 163.305 136.657 163.348 136.638C163.39 136.62 163.437 136.611 163.484 136.614C163.623 136.614 163.713 136.687 163.713 136.801C163.713 136.842 163.703 136.881 163.684 136.917C163.665 136.953 163.638 136.983 163.606 137.007L163.432 137.174H163.741Z" fill="white"/>
<path d="M163.804 136.85C163.804 136.835 163.808 136.82 163.817 136.808C163.825 136.795 163.837 136.785 163.851 136.779C163.865 136.774 163.881 136.772 163.895 136.775C163.91 136.778 163.924 136.785 163.935 136.796C163.945 136.807 163.953 136.82 163.956 136.835C163.959 136.85 163.957 136.865 163.951 136.879C163.945 136.893 163.936 136.905 163.923 136.914C163.91 136.922 163.896 136.927 163.881 136.927C163.86 136.927 163.841 136.919 163.826 136.904C163.812 136.89 163.804 136.87 163.804 136.85V136.85ZM163.804 137.198C163.804 137.178 163.812 137.158 163.826 137.144C163.841 137.13 163.86 137.122 163.881 137.122C163.901 137.122 163.92 137.13 163.935 137.144C163.949 137.158 163.957 137.178 163.957 137.198C163.957 137.218 163.949 137.238 163.935 137.252C163.92 137.267 163.901 137.275 163.881 137.275C163.86 137.275 163.841 137.267 163.826 137.252C163.812 137.238 163.804 137.218 163.804 137.198V137.198Z" fill="white"/>
<path d="M164.26 136.624V137.275H164.138V136.725H164.002V136.624H164.26Z" fill="white"/>
<path d="M164.966 137.125H164.851V137.275H164.74V137.125H164.392V137.052L164.712 136.634H164.841L164.542 137.035H164.74V136.902H164.851V137.035H164.966V137.125Z" fill="white"/>
<path d="M215.325 136.85H166.028V137.111H215.325V136.85Z" fill="white"/>
<path d="M181.399 136.575H165.993V137.271H181.399V136.575Z" fill="#EBEBEB"/>
<path d="M181.893 136.979C181.894 137.128 181.85 137.274 181.768 137.398C181.685 137.522 181.568 137.619 181.431 137.676C181.293 137.734 181.142 137.749 180.995 137.72C180.849 137.691 180.715 137.619 180.61 137.514C180.504 137.409 180.433 137.274 180.404 137.128C180.375 136.982 180.39 136.831 180.447 136.693C180.505 136.556 180.602 136.438 180.726 136.356C180.85 136.274 180.996 136.23 181.145 136.231C181.343 136.232 181.533 136.311 181.673 136.451C181.813 136.591 181.892 136.781 181.893 136.979V136.979Z" fill="#EBEBEB"/>
<path d="M216.568 136.972C216.567 137.002 216.561 137.031 216.548 137.059C216.536 137.086 216.518 137.11 216.496 137.13C216.474 137.15 216.448 137.165 216.419 137.175C216.391 137.184 216.361 137.187 216.331 137.184C216.154 137.184 216.049 137.069 216.049 136.861C216.044 136.816 216.048 136.771 216.061 136.729C216.075 136.686 216.097 136.647 216.127 136.614C216.157 136.581 216.194 136.555 216.236 136.537C216.277 136.52 216.321 136.511 216.366 136.513C216.425 136.51 216.485 136.525 216.536 136.554L216.495 136.648C216.457 136.626 216.413 136.615 216.369 136.617C216.247 136.617 216.171 136.69 216.171 136.84C216.193 136.817 216.221 136.799 216.251 136.787C216.281 136.776 216.313 136.771 216.345 136.774C216.373 136.771 216.401 136.774 216.428 136.782C216.455 136.791 216.479 136.805 216.5 136.824C216.521 136.842 216.538 136.865 216.549 136.891C216.561 136.916 216.567 136.944 216.568 136.972V136.972ZM216.449 136.972C216.449 136.902 216.401 136.861 216.321 136.861C216.241 136.861 216.188 136.906 216.188 136.972C216.188 137.038 216.237 137.08 216.324 137.08C216.339 137.082 216.354 137.081 216.369 137.077C216.383 137.073 216.397 137.066 216.408 137.056C216.42 137.047 216.43 137.035 216.437 137.022C216.444 137.009 216.448 136.994 216.449 136.979V136.972Z" fill="white"/>
<path d="M216.627 136.749C216.626 136.739 216.628 136.729 216.632 136.719C216.635 136.71 216.641 136.701 216.648 136.694C216.655 136.687 216.664 136.681 216.673 136.678C216.683 136.674 216.693 136.672 216.703 136.673C216.724 136.673 216.743 136.681 216.758 136.695C216.772 136.709 216.78 136.729 216.78 136.749C216.78 136.77 216.772 136.789 216.758 136.803C216.743 136.818 216.724 136.826 216.703 136.826C216.693 136.826 216.683 136.825 216.673 136.821C216.664 136.817 216.655 136.812 216.648 136.804C216.641 136.797 216.635 136.789 216.632 136.779C216.628 136.77 216.626 136.759 216.627 136.749ZM216.627 137.097C216.626 137.087 216.627 137.076 216.63 137.067C216.634 137.057 216.639 137.048 216.647 137.041C216.654 137.033 216.663 137.028 216.673 137.024C216.683 137.021 216.693 137.02 216.703 137.021C216.713 137.02 216.723 137.022 216.733 137.025C216.742 137.029 216.751 137.035 216.758 137.042C216.765 137.049 216.77 137.058 216.773 137.068C216.776 137.077 216.777 137.087 216.776 137.097C216.779 137.108 216.779 137.12 216.776 137.131C216.773 137.142 216.768 137.153 216.761 137.162C216.754 137.17 216.745 137.178 216.735 137.183C216.724 137.187 216.713 137.19 216.702 137.19C216.69 137.19 216.679 137.187 216.669 137.183C216.658 137.178 216.649 137.17 216.642 137.162C216.635 137.153 216.63 137.142 216.627 137.131C216.624 137.12 216.624 137.108 216.627 137.097V137.097Z" fill="white"/>
<path d="M216.857 136.85C216.857 136.634 216.971 136.502 217.128 136.502C217.285 136.502 217.399 136.624 217.399 136.85C217.399 137.076 217.281 137.198 217.128 137.198C216.975 137.198 216.857 137.052 216.857 136.85ZM217.278 136.85C217.278 136.69 217.215 136.621 217.128 136.621C217.041 136.621 216.978 136.69 216.978 136.85C216.978 137.01 217.037 137.076 217.128 137.076C217.218 137.076 217.288 137.007 217.288 136.85H217.278Z" fill="white"/>
<path d="M217.479 136.85C217.479 136.634 217.598 136.502 217.751 136.502C217.904 136.502 218.022 136.624 218.022 136.85C218.022 137.076 217.907 137.198 217.751 137.198C217.594 137.198 217.479 137.052 217.479 136.85ZM217.9 136.85C217.9 136.69 217.841 136.621 217.751 136.621C217.66 136.621 217.601 136.69 217.601 136.85C217.601 137.01 217.664 137.076 217.751 137.076C217.838 137.076 217.9 137.007 217.9 136.85Z" fill="white"/>
<path d="M219.091 136.808H218.83V136.144H219.494V136.405H219.091V136.808Z" fill="white"/>
<path d="M219.494 137.671H218.83V137.007H219.091V137.41H219.494V137.671Z" fill="white"/>
<path d="M220.545 137.671H219.881V137.41H220.284V137.007H220.545V137.671Z" fill="white"/>
<path d="M220.545 136.808H220.284V136.405H219.881V136.144H220.545V136.808Z" fill="white"/>
<path d="M212.138 106.08C212.582 106.025 213.03 106 213.477 106.007H213.55V106.08C213.55 106.588 213.55 107.162 213.55 107.782V108.001L213.394 107.844C213.338 107.789 213.276 107.73 213.216 107.667C213.06 107.51 212.91 107.357 212.761 107.211H212.882L212.186 107.837L212.054 107.956V107.778C212.054 107.253 212.082 106.814 212.096 106.518C212.093 106.37 212.105 106.222 212.134 106.077C212.161 106.24 212.174 106.405 212.172 106.571C212.19 106.87 212.207 107.288 212.214 107.778L212.082 107.719L212.778 107.079L212.841 107.023L212.9 107.082L213.359 107.535L213.537 107.716L213.383 107.778C213.383 107.159 213.383 106.585 213.401 106.077L213.47 106.15C212.701 106.143 212.162 106.104 212.138 106.08Z" fill="white"/>
<path d="M217.069 106.303C217.069 106.303 216.964 106.442 216.745 106.717C216.526 106.992 216.195 107.395 215.792 107.851L215.642 108.018V107.792C215.642 107.524 215.642 107.242 215.642 106.947V106.866L215.67 106.929L215.075 106.351L214.922 106.202H215.134C215.725 106.202 216.23 106.24 216.568 106.261C216.737 106.262 216.905 106.275 217.072 106.299C217.072 106.299 216.836 106.299 216.488 106.331C216.14 106.362 215.673 106.372 215.134 106.372L215.193 106.226L215.795 106.797L215.823 106.821V106.943C215.823 107.239 215.823 107.521 215.823 107.789L215.67 107.73C216.046 107.319 216.387 106.981 216.644 106.724C216.902 106.466 217.051 106.31 217.069 106.303Z" fill="white"/>
<path d="M217.069 106.303C217.09 106.348 216.804 106.512 216.432 106.668C216.218 106.787 215.98 106.855 215.736 106.867C215.715 106.818 216 106.654 216.369 106.519C216.738 106.383 217.048 106.254 217.069 106.303Z" fill="white"/>
<path d="M219.473 106.08C219.473 106.08 219.557 106.049 219.714 106.08C219.937 106.126 220.137 106.249 220.277 106.428C220.385 106.562 220.456 106.721 220.485 106.891C220.513 107.06 220.498 107.234 220.441 107.396C220.363 107.589 220.23 107.755 220.057 107.872C219.884 107.989 219.68 108.051 219.472 108.051C219.263 108.051 219.059 107.989 218.887 107.872C218.714 107.755 218.58 107.589 218.503 107.396C218.447 107.233 218.434 107.058 218.465 106.889C218.496 106.719 218.57 106.561 218.68 106.428C218.822 106.248 219.023 106.125 219.247 106.08C219.4 106.056 219.487 106.08 219.487 106.08C219.414 106.105 219.34 106.126 219.265 106.143C219.07 106.204 218.901 106.326 218.781 106.491C218.697 106.609 218.643 106.747 218.624 106.891C218.605 107.036 218.622 107.183 218.673 107.319C218.719 107.433 218.789 107.535 218.877 107.62C218.966 107.705 219.071 107.77 219.187 107.811C219.302 107.853 219.425 107.869 219.547 107.859C219.67 107.85 219.788 107.814 219.896 107.756C220.004 107.697 220.098 107.616 220.172 107.518C220.246 107.421 220.299 107.309 220.327 107.189C220.354 107.07 220.357 106.946 220.333 106.825C220.31 106.705 220.261 106.591 220.19 106.491C220.071 106.327 219.903 106.205 219.71 106.143C219.63 106.127 219.551 106.106 219.473 106.08Z" fill="white"/>
<path d="M219.797 107.444C219.759 107.479 219.55 107.326 219.327 107.096L219.299 107.068V107.03C219.299 106.71 219.341 106.452 219.39 106.452C219.439 106.452 219.48 106.71 219.48 107.03L219.456 106.967C219.679 107.197 219.832 107.409 219.797 107.444Z" fill="white"/>
<path d="M196.408 107.382C196.408 107.43 189.866 107.472 181.792 107.472C173.718 107.472 167.176 107.43 167.176 107.382C167.176 107.333 173.715 107.291 181.792 107.291C189.869 107.291 196.408 107.329 196.408 107.382Z" fill="white"/>
<path d="M165.819 107.382C165.82 107.61 165.752 107.834 165.626 108.025C165.499 108.215 165.318 108.364 165.107 108.452C164.896 108.54 164.663 108.563 164.439 108.518C164.214 108.474 164.008 108.364 163.847 108.202C163.685 108.04 163.575 107.834 163.53 107.61C163.486 107.385 163.509 107.152 163.597 106.941C163.685 106.73 163.833 106.55 164.024 106.423C164.214 106.296 164.438 106.229 164.667 106.23C164.972 106.23 165.265 106.351 165.481 106.567C165.697 106.783 165.819 107.076 165.819 107.382V107.382Z" fill="white"/>
<path d="M193.805 165.988C193.774 166.026 193.502 165.863 193.199 165.64C192.897 165.417 192.674 165.167 192.709 165.125C192.744 165.083 193.012 165.247 193.318 165.491C193.624 165.734 193.84 165.936 193.805 165.988Z" fill="#263238"/>
<path d="M202.077 153.624C202.129 152.468 202.16 151.282 201.795 150.185C201.43 149.089 200.584 148.08 199.453 147.847C198.162 147.579 196.836 148.393 196.112 149.496C195.388 150.6 195.141 151.932 194.925 153.241C193.452 162.222 192.909 171.331 193.304 180.423L198.593 181.164C200.932 171.678 201.656 163.382 202.077 153.624Z" fill="#455A64"/>
<path d="M198.719 147.805C198.719 147.805 198.719 147.833 198.694 147.889L198.607 148.129C198.52 148.352 198.406 148.658 198.259 149.041C198.186 149.242 198.085 149.458 198.009 149.702C197.932 149.945 197.842 150.217 197.751 150.502C197.661 150.788 197.56 151.097 197.456 151.424C197.351 151.751 197.278 152.12 197.181 152.468C196.742 154.188 196.401 155.93 196.161 157.688C195.876 159.675 195.688 161.864 195.538 164.192C195.27 168.824 195.228 173.032 195.107 176.073C195.051 177.594 194.999 178.822 194.939 179.672C194.912 180.086 194.891 180.413 194.873 180.649C194.873 180.754 194.873 180.837 194.852 180.903C194.856 180.932 194.856 180.962 194.852 180.99C194.85 180.961 194.85 180.932 194.852 180.903C194.852 180.834 194.852 180.75 194.852 180.649C194.852 180.417 194.863 180.09 194.884 179.668C194.922 178.819 194.953 177.58 194.992 176.07C195.075 173.028 195.096 168.821 195.368 164.182C195.517 161.864 195.716 159.658 196.004 157.664C196.254 155.896 196.61 154.145 197.069 152.42L197.358 151.376L197.668 150.457C197.765 150.172 197.856 149.904 197.943 149.657C198.03 149.409 198.127 149.197 198.207 149.002L198.593 148.101L198.698 147.868C198.701 147.84 198.715 147.802 198.719 147.805Z" fill="#263238"/>
<path d="M199.209 147.809C199.485 148.134 199.703 148.503 199.853 148.901C200.259 149.993 200.424 151.16 200.337 152.322C200.198 155.245 199.933 159.282 199.589 163.716C199.244 168.149 198.851 172.179 198.545 175.085C198.388 176.54 198.252 177.712 198.155 178.523C198.103 178.916 198.065 179.219 198.033 179.456C198.033 179.553 198.009 179.633 197.998 179.699C198.001 179.727 198.001 179.755 197.998 179.783C197.995 179.754 197.995 179.725 197.998 179.696C197.998 179.63 197.998 179.55 197.998 179.452C198.019 179.223 198.051 178.909 198.085 178.516C198.165 177.685 198.277 176.515 198.433 175.071C198.712 172.165 199.077 168.146 199.425 163.702C199.773 159.258 200.059 155.232 200.233 152.319C200.329 151.172 200.187 150.018 199.815 148.929C199.647 148.539 199.444 148.164 199.209 147.809Z" fill="#263238"/>
<path d="M202.874 161.492C202.527 161.467 202.188 161.38 201.872 161.234C201.535 161.147 201.218 160.998 200.936 160.796C201.618 160.909 202.275 161.145 202.874 161.492V161.492Z" fill="#263238"/>
<path d="M203.511 156.105C203.225 156.334 202.903 156.513 202.557 156.634C202.232 156.811 201.879 156.928 201.513 156.982C201.799 156.752 202.121 156.572 202.467 156.449C202.792 156.275 203.145 156.159 203.511 156.105Z" fill="#263238"/>
<path d="M203.18 151.706C202.658 151.794 202.123 151.757 201.618 151.598C201.874 151.524 202.144 151.51 202.408 151.557C202.673 151.545 202.938 151.596 203.18 151.706Z" fill="#263238"/>
<path d="M197.723 148.884C197.682 148.912 197.449 148.623 197.208 148.24C197.039 148.021 196.92 147.766 196.86 147.496C196.906 147.468 197.135 147.756 197.379 148.139C197.623 148.522 197.769 148.86 197.723 148.884Z" fill="#263238"/>
<path d="M195.921 151.546C195.682 151.633 195.425 151.66 195.173 151.626C194.918 151.65 194.661 151.611 194.424 151.515C194.665 151.428 194.923 151.4 195.176 151.435C195.59 151.445 195.924 151.494 195.921 151.546Z" fill="#263238"/>
<path d="M194.626 156.867C194.35 156.855 194.08 156.782 193.836 156.651C193.419 156.484 193.099 156.303 193.116 156.258C193.393 156.269 193.663 156.344 193.906 156.477C194.32 156.644 194.647 156.818 194.626 156.867Z" fill="#263238"/>
<path d="M194.49 161.342C194.49 161.395 194.198 161.503 193.815 161.583C193.591 161.657 193.352 161.675 193.119 161.635C193.119 161.583 193.408 161.478 193.791 161.398C194.016 161.321 194.256 161.302 194.49 161.342Z" fill="#263238"/>
<path d="M193.878 168.664C193.878 168.716 193.568 168.817 193.165 168.887C192.761 168.957 192.427 168.977 192.416 168.925C192.406 168.873 192.73 168.776 193.133 168.703C193.537 168.63 193.871 168.612 193.878 168.664Z" fill="#263238"/>
<path d="M193.474 172.705C193.499 172.75 193.234 172.941 192.879 173.126C192.524 173.31 192.222 173.428 192.183 173.383C192.145 173.338 192.423 173.147 192.778 172.959C193.133 172.771 193.45 172.659 193.474 172.705Z" fill="#263238"/>
<path d="M196.773 177.291C196.728 177.319 196.498 176.995 196.255 176.574C196.084 176.331 195.965 176.055 195.907 175.764C195.952 175.739 196.185 176.059 196.425 176.48C196.598 176.723 196.716 176.999 196.773 177.291V177.291Z" fill="#263238"/>
<path d="M197.727 169.67C197.765 169.708 197.504 170.018 197.149 170.366C196.794 170.714 196.474 170.968 196.453 170.93C196.432 170.892 196.676 170.582 197.031 170.234C197.386 169.886 197.692 169.632 197.727 169.67Z" fill="#263238"/>
<path d="M197.515 165.672C197.476 165.706 197.236 165.508 196.979 165.23C196.721 164.951 196.544 164.697 196.582 164.662C196.62 164.628 196.86 164.822 197.118 165.101C197.375 165.379 197.553 165.637 197.515 165.672Z" fill="#263238"/>
<path d="M198.172 160.559C198.211 160.594 197.995 160.907 197.689 161.255C197.382 161.603 197.104 161.844 197.066 161.809C197.027 161.774 197.243 161.461 197.549 161.113C197.856 160.765 198.148 160.525 198.172 160.559Z" fill="#263238"/>
<path d="M198.538 156.853C198.503 156.888 198.19 156.651 197.866 156.324C197.542 155.997 197.292 155.698 197.327 155.66C197.362 155.621 197.675 155.861 197.998 156.188C198.322 156.516 198.576 156.815 198.538 156.853Z" fill="#263238"/>
<path d="M199.262 151.838C199.307 151.866 199.157 152.186 198.914 152.59C198.67 152.994 198.461 153.286 198.416 153.244C198.371 153.203 198.52 152.896 198.764 152.493C199.008 152.089 199.22 151.811 199.262 151.838Z" fill="#263238"/>
<path d="M200.626 147.193C200.585 147.463 200.483 147.72 200.327 147.944C200.114 148.334 199.909 148.64 199.86 148.606C199.903 148.336 200.005 148.079 200.159 147.854C200.372 147.464 200.584 147.168 200.626 147.193Z" fill="#263238"/>
<path d="M202.171 149.305C202.192 149.35 201.983 149.5 201.698 149.653C201.412 149.806 201.165 149.858 201.144 149.813C201.123 149.768 201.332 149.618 201.618 149.483C201.903 149.347 202.147 149.256 202.171 149.305Z" fill="#263238"/>
<path d="M202.209 165.988C201.846 165.994 201.487 165.908 201.165 165.738C200.823 165.625 200.516 165.427 200.271 165.163C200.921 165.422 201.565 165.697 202.202 165.988H202.209Z" fill="#263238"/>
<path d="M201.576 169.52C201.576 169.573 201.266 169.677 200.88 169.753C200.493 169.83 200.142 169.854 200.132 169.802C200.121 169.75 200.441 169.646 200.828 169.569C201.07 169.494 201.326 169.477 201.576 169.52V169.52Z" fill="#263238"/>
<path d="M200.8 175.579C200.179 175.205 199.714 174.619 199.491 173.93C199.732 174.185 199.95 174.461 200.142 174.754C200.385 175.01 200.605 175.286 200.8 175.579V175.579Z" fill="#263238"/>
<path d="M192.302 178.353C192.267 178.311 192.483 178.071 192.778 177.817C193.074 177.563 193.349 177.385 193.384 177.427C193.419 177.469 193.203 177.705 192.904 177.959C192.604 178.213 192.333 178.391 192.302 178.353Z" fill="#263238"/>
<path d="M189.855 165.129C189.507 164.053 188.867 162.8 187.739 162.783C187.404 162.801 187.079 162.909 186.8 163.096C186.521 163.283 186.297 163.541 186.153 163.844C185.843 164.445 185.696 165.115 185.724 165.79C185.868 170.576 186.688 175.317 188.16 179.873H192.291C192.239 174.863 191.417 169.89 189.855 165.129V165.129Z" fill="#455A64"/>
<path d="M182.391 158.364C181.813 156.053 180.09 154.807 178.093 154.692C176.266 155.012 175.559 156.808 175.344 158.649C175.128 160.49 175.692 162.32 176.262 164.085C178.072 169.75 179.883 175.416 181.695 181.081L186.831 180.521C185.206 172.931 184.273 165.894 182.391 158.364Z" fill="#455A64"/>
<path d="M187.739 162.783C187.607 162.968 187.491 163.164 187.391 163.368C187.182 163.951 187.116 164.577 187.2 165.191C187.28 165.978 187.367 166.931 187.499 167.958C187.631 168.984 187.823 170.133 188.053 171.316C188.519 173.689 189.048 175.819 189.378 177.368C189.549 178.144 189.678 178.76 189.758 179.209C189.792 179.411 189.82 179.578 189.845 179.713C189.853 179.772 189.853 179.832 189.845 179.891C189.845 179.891 189.817 179.835 189.789 179.72C189.761 179.605 189.716 179.424 189.667 179.226C189.559 178.767 189.41 178.147 189.232 177.399C188.884 175.857 188.32 173.735 187.84 171.354C187.607 170.164 187.426 169.023 187.301 167.979C187.235 167.457 187.189 166.963 187.148 166.496C187.106 166.03 187.061 165.602 187.036 165.202C186.964 164.568 187.054 163.926 187.297 163.336C187.402 163.122 187.553 162.933 187.739 162.783V162.783Z" fill="#263238"/>
<path d="M178.166 154.546C177.939 154.807 177.732 155.085 177.546 155.378C177.072 156.198 176.803 157.121 176.763 158.068C176.741 159.472 176.956 160.87 177.4 162.202C177.849 163.73 178.347 165.407 178.865 167.168C179.888 170.69 180.818 173.874 181.493 176.216L182.269 178.958C182.352 179.271 182.422 179.518 182.471 179.71C182.499 179.796 182.519 179.884 182.53 179.974C182.491 179.893 182.46 179.808 182.436 179.72C182.377 179.532 182.297 179.289 182.199 178.979L181.364 176.254C180.668 173.926 179.728 170.745 178.684 167.234L177.233 162.261C176.791 160.909 176.587 159.49 176.631 158.068C176.683 157.105 176.976 156.17 177.484 155.35C177.664 155.045 177.895 154.773 178.166 154.546V154.546Z" fill="#263238"/>
<path d="M185.71 179.971C185.665 179.893 185.627 179.811 185.596 179.727C185.529 179.56 185.418 179.323 185.303 179.003C185.06 178.373 184.743 177.444 184.419 176.275C184.096 175.106 183.772 173.703 183.462 172.134C183.153 170.564 182.836 168.835 182.488 167.025C182.14 165.216 181.733 163.507 181.273 161.979C180.874 160.624 180.372 159.302 179.774 158.022C179.368 157.16 178.903 156.326 178.382 155.527C178.208 155.238 178.034 155.03 177.95 154.88C177.895 154.808 177.847 154.731 177.807 154.65C177.871 154.715 177.929 154.785 177.981 154.859C178.086 155.002 178.256 155.207 178.444 155.485C178.989 156.272 179.472 157.101 179.888 157.963C180.512 159.241 181.032 160.566 181.444 161.927C181.943 163.589 182.356 165.275 182.679 166.98C183.027 168.793 183.341 170.519 183.633 172.092C183.925 173.665 184.242 175.067 184.548 176.233C184.854 177.399 185.15 178.321 185.373 178.972C185.477 179.292 185.575 179.536 185.63 179.706C185.666 179.791 185.693 179.88 185.71 179.971V179.971Z" fill="#263238"/>
<path d="M176.353 163.236C176.353 163.288 176.085 163.399 175.73 163.486C175.375 163.573 175.072 163.601 175.062 163.549C175.051 163.497 175.326 163.389 175.685 163.302C176.043 163.215 176.342 163.187 176.353 163.236Z" fill="#263238"/>
<path d="M175.81 159.731C175.528 159.81 175.235 159.842 174.943 159.825C174.653 159.866 174.357 159.857 174.07 159.797C174.341 159.673 174.639 159.617 174.936 159.634C175.231 159.593 175.531 159.626 175.81 159.731Z" fill="#263238"/>
<path d="M176.388 156.54C176.353 156.578 176.074 156.397 175.765 156.133C175.455 155.868 175.229 155.625 175.264 155.586C175.298 155.548 175.577 155.726 175.886 155.99C176.196 156.255 176.422 156.488 176.388 156.54Z" fill="#263238"/>
<path d="M177.964 153.565C178.016 153.565 178.002 153.826 177.995 154.128C177.988 154.431 177.995 154.682 177.933 154.689C177.87 154.696 177.797 154.445 177.807 154.121C177.818 153.798 177.905 153.554 177.964 153.565Z" fill="#263238"/>
<path d="M181.155 154.96C181.2 154.991 181.075 155.245 180.877 155.527C180.678 155.809 180.484 156.015 180.442 155.983C180.4 155.952 180.525 155.701 180.72 155.419C180.915 155.138 181.113 154.932 181.155 154.96Z" fill="#263238"/>
<path d="M183.233 158.572C183.254 158.621 182.989 158.774 182.641 158.92C182.293 159.066 181.994 159.136 181.973 159.087C181.952 159.039 182.22 158.886 182.568 158.739C182.916 158.593 183.215 158.524 183.233 158.572Z" fill="#263238"/>
<path d="M184.496 162.285C183.997 162.626 183.388 162.764 182.791 162.672C183.063 162.564 183.349 162.491 183.64 162.456C183.917 162.362 184.204 162.305 184.496 162.285V162.285Z" fill="#263238"/>
<path d="M178.709 161.231C178.657 161.214 178.709 160.96 178.789 160.657C178.869 160.354 178.998 160.124 179.05 160.142C179.102 160.159 179.05 160.413 178.966 160.713C178.883 161.012 178.757 161.245 178.709 161.231Z" fill="#263238"/>
<path d="M179.516 165.894C179.532 165.622 179.611 165.358 179.746 165.122C179.923 164.715 180.094 164.405 180.153 164.426C180.136 164.697 180.056 164.96 179.92 165.195C179.742 165.588 179.561 165.915 179.516 165.894Z" fill="#263238"/>
<path d="M177.519 167.168C177.264 167.166 177.013 167.111 176.781 167.008C176.388 166.883 176.067 166.771 176.085 166.719C176.102 166.667 176.433 166.702 176.84 166.827C177.247 166.952 177.539 167.123 177.519 167.168Z" fill="#263238"/>
<path d="M178.66 170.972C178.691 171.013 178.469 171.222 178.169 171.438C177.87 171.654 177.599 171.786 177.567 171.751C177.536 171.716 177.755 171.5 178.058 171.285C178.361 171.069 178.639 170.93 178.66 170.972Z" fill="#263238"/>
<path d="M179.593 174.761C179.593 174.813 179.332 174.921 178.984 175.005C178.636 175.088 178.343 175.12 178.333 175.067C178.322 175.015 178.59 174.907 178.938 174.824C179.286 174.74 179.579 174.709 179.593 174.761Z" fill="#263238"/>
<path d="M184.597 165.452C184.621 165.494 184.388 165.682 184.051 165.8C183.713 165.919 183.414 165.943 183.407 165.894C183.4 165.845 183.661 165.745 183.984 165.623C184.308 165.501 184.576 165.407 184.597 165.452Z" fill="#263238"/>
<path d="M185.31 171.347C185.289 171.396 185.011 171.313 184.691 171.159C184.371 171.006 184.131 170.85 184.151 170.811C184.172 170.773 184.451 170.846 184.771 170.996C185.091 171.146 185.335 171.302 185.31 171.347Z" fill="#263238"/>
<path d="M186.574 175.569C186.288 175.555 186.009 175.48 185.756 175.349C185.324 175.179 184.987 175.001 185.008 174.953C185.293 174.967 185.571 175.042 185.825 175.172C186.1 175.249 186.356 175.384 186.574 175.569V175.569Z" fill="#263238"/>
<path d="M179.794 178.875C179.77 178.826 180.104 178.6 180.49 178.293C180.877 177.987 181.187 177.712 181.221 177.751C181.256 177.789 181.012 178.123 180.609 178.447C180.382 178.661 180.1 178.809 179.794 178.875V178.875Z" fill="#263238"/>
<path d="M183.132 176.724C183.076 176.724 183.003 176.446 182.874 176.118C182.746 175.791 182.613 175.527 182.655 175.496C182.697 175.464 182.916 175.694 183.052 176.049C183.188 176.404 183.184 176.724 183.132 176.724Z" fill="#263238"/>
<path d="M182.244 171.654C182.217 171.695 182.001 171.591 181.764 171.424C181.527 171.257 181.364 171.076 181.395 171.041C181.427 171.006 181.639 171.1 181.875 171.271C182.112 171.441 182.276 171.612 182.244 171.654Z" fill="#263238"/>
<path d="M190.022 163.698C190.054 163.744 189.845 163.949 189.556 164.165C189.267 164.38 189.006 164.513 188.975 164.474C188.943 164.436 189.152 164.224 189.441 164.012C189.73 163.799 189.991 163.657 190.022 163.698Z" fill="#263238"/>
<path d="M191.188 166.903C191.188 166.956 190.864 167.025 190.457 166.98C190.05 166.935 189.761 166.799 189.761 166.75C189.761 166.702 190.109 166.75 190.478 166.792C190.847 166.834 191.188 166.851 191.188 166.903Z" fill="#263238"/>
<path d="M186.156 167.624C186.156 167.672 185.864 167.78 185.46 167.808C185.056 167.836 184.764 167.766 184.764 167.714C184.764 167.662 185.077 167.645 185.46 167.62C185.843 167.596 186.146 167.572 186.156 167.624Z" fill="#263238"/>
<path d="M186.591 164.593C186.591 164.645 186.278 164.652 185.944 164.495C185.61 164.339 185.411 164.102 185.446 164.067C185.481 164.032 185.714 164.186 186.02 164.325C186.326 164.464 186.598 164.544 186.591 164.593Z" fill="#263238"/>
<path d="M191.627 170.345C191.599 170.387 191.279 170.241 190.931 170.015C190.583 169.788 190.301 169.566 190.328 169.524C190.356 169.482 190.676 169.625 191.024 169.854C191.373 170.084 191.654 170.3 191.627 170.345Z" fill="#263238"/>
<path d="M203.921 179.337H177.042V184.102H203.921V179.337Z" fill="#6777EF"/>
<path d="M179.05 183.155L182.317 197.392H198.339L201.913 183.155H179.05Z" fill="#6777EF"/>
<path d="M203.907 184.105C203.907 184.157 197.845 184.203 190.367 184.203C182.888 184.203 176.823 184.157 176.823 184.105C176.823 184.053 182.885 184.011 190.367 184.011C197.849 184.011 203.907 184.056 203.907 184.105Z" fill="#263238"/>
<path d="M188.957 167.728C188.912 167.756 188.731 167.54 188.547 167.248C188.362 166.956 188.254 166.698 188.296 166.67C188.338 166.642 188.526 166.858 188.707 167.147C188.888 167.436 189.003 167.7 188.957 167.728Z" fill="#263238"/>
<path d="M188.968 171.56C188.954 171.311 189.002 171.062 189.107 170.836C189.236 170.453 189.378 170.157 189.427 170.175C189.476 170.192 189.427 170.523 189.288 170.895C189.149 171.267 189.016 171.577 188.968 171.56Z" fill="#263238"/>
<path d="M190.28 175.586C190.231 175.607 190.033 175.287 189.831 174.866C189.681 174.622 189.586 174.349 189.552 174.065C189.601 174.044 189.8 174.364 190.001 174.786C190.153 175.028 190.249 175.302 190.28 175.586V175.586Z" fill="#263238"/>
<path d="M187.44 178.812C187.402 178.777 187.562 178.527 187.788 178.255C188.014 177.984 188.251 177.789 188.289 177.82C188.327 177.852 188.167 178.106 187.941 178.377C187.715 178.648 187.482 178.857 187.44 178.812Z" fill="#263238"/>
<path d="M186.845 172.945C186.845 172.993 186.577 172.993 186.267 172.945C185.958 172.896 185.714 172.806 185.721 172.753C185.728 172.701 185.989 172.705 186.299 172.753C186.608 172.802 186.855 172.896 186.845 172.945Z" fill="#263238"/>
<path d="M127.647 100.777L109.203 94.1646C110.41 108.551 111.583 123.296 107.758 137.216C107.344 138.722 106.979 140.609 108.176 141.611C108.893 142.209 109.916 142.23 110.852 142.202C112.764 142.144 114.672 142.004 116.577 141.781C118.602 141.548 120.753 141.152 122.204 139.711C123.412 138.5 123.899 136.767 124.292 135.107C127.048 123.883 128.177 112.322 127.647 100.777V100.777Z" fill="#263238"/>
<path d="M97.4507 160.159L99.6362 157.295L101.098 149.639L104.425 131.004C104.425 131.004 105.89 123.995 110.41 121.987L111.367 140.605L102.145 164.001L97.4507 160.159Z" fill="#6777EF"/>
<path d="M117.273 116.92L114.555 120.136L110.41 121.98C110.41 121.98 101.286 139.408 101.056 139.572C100.826 139.735 99.3473 144.705 100.162 148.94C100.976 153.175 101.554 158.715 101.463 162.703C101.373 166.691 96.1562 179.811 95.836 182.824C95.5159 185.838 94.444 197.486 94.444 197.486L140.547 197.138C140.129 194.21 139.557 191.306 138.835 188.438C138.835 188.438 138.671 176.87 136.963 174.671C136.963 174.671 138.264 171.657 138.104 169.948C137.944 168.24 144.946 159.115 146.331 155.938C147.716 152.761 153.172 145.498 153.253 140.299C153.333 135.1 152.518 130.687 149.912 127.103C147.305 123.518 142.583 121.075 140.627 119.774L136.799 114.884L117.273 116.92Z" fill="#6777EF"/>
<path d="M100.837 197.486C100.832 197.439 100.832 197.393 100.837 197.347C100.837 197.246 100.837 197.11 100.837 196.936C100.837 196.567 100.875 196.042 100.903 195.366C100.962 193.995 101.042 192.026 101.143 189.597C101.185 188.379 101.23 187.042 101.247 185.608C101.247 184.912 101.247 184.154 101.247 183.392C101.233 182.599 101.311 181.807 101.481 181.032C101.872 179.387 102.376 177.771 102.987 176.195C103.301 175.364 103.567 174.516 103.784 173.655C103.871 173.211 103.93 172.762 103.962 172.311L104.098 170.919C104.285 169.068 104.466 167.262 104.64 165.515C104.731 164.641 104.814 163.775 104.901 162.943C104.988 162.112 105.093 161.283 105.117 160.479C105.312 157.635 105.699 154.808 106.276 152.016C106.746 149.622 107.177 147.694 107.456 146.358C107.595 145.7 107.703 145.185 107.776 144.823L107.863 144.423C107.871 144.377 107.883 144.331 107.898 144.287C107.896 144.334 107.89 144.38 107.88 144.426C107.863 144.527 107.842 144.659 107.814 144.83C107.745 145.178 107.647 145.71 107.525 146.375C107.268 147.715 106.857 149.643 106.401 152.04C105.842 154.839 105.468 157.67 105.281 160.518C105.26 161.325 105.145 162.143 105.068 162.985C104.992 163.827 104.901 164.683 104.814 165.557L104.275 170.965L104.139 172.357C104.105 172.815 104.044 173.27 103.955 173.721C103.738 174.59 103.47 175.445 103.151 176.282C102.539 177.85 102.034 179.458 101.641 181.095C101.473 181.856 101.392 182.633 101.4 183.413C101.425 184.182 101.421 184.923 101.4 185.64C101.376 187.074 101.324 188.424 101.275 189.628C101.171 192.064 101.059 194.037 100.979 195.398C100.934 196.073 100.899 196.598 100.875 196.967C100.861 197.139 100.851 197.275 100.844 197.374C100.843 197.412 100.841 197.449 100.837 197.486V197.486Z" fill="#263238"/>
<path d="M108.016 144.123C108.016 143.751 109.652 137.435 113.069 132.156C116.486 126.876 117.245 122.269 117.245 122.269L117.301 115.455L117.593 116.332L134.923 113.819L135.449 116.325L123.85 126.803C123.85 126.803 118.491 127.847 118.282 127.993C118.073 128.14 108.016 144.123 108.016 144.123Z" fill="#EFBDA8"/>
<path d="M140.627 119.781C140.584 119.865 140.532 119.946 140.474 120.021C140.37 120.177 140.213 120.407 140.008 120.696C139.597 121.277 138.985 122.105 138.208 123.115C137.432 124.124 136.489 125.31 135.473 126.65C134.965 127.322 134.429 128.042 133.907 128.773C133.776 128.969 133.631 129.155 133.472 129.33C133.299 129.522 133.064 129.645 132.808 129.678C132.55 129.68 132.297 129.607 132.08 129.469C131.864 129.344 131.67 129.212 131.464 129.079L129.077 127.548C128.691 127.301 128.315 127.05 127.943 126.824C127.605 126.581 127.196 126.458 126.78 126.476C126.389 126.548 126.022 126.72 125.715 126.974C125.402 127.211 125.092 127.451 124.769 127.649C124.17 128.017 123.517 128.288 122.834 128.453C121.848 128.7 120.82 128.724 119.824 128.523C119.667 128.494 119.513 128.457 119.361 128.411C119.229 128.373 119.117 128.342 119.013 128.307C118.921 128.279 118.832 128.242 118.748 128.195C118.842 128.215 118.933 128.241 119.023 128.272C119.114 128.3 119.225 128.328 119.371 128.359C119.524 128.398 119.678 128.429 119.834 128.453C120.82 128.627 121.831 128.585 122.799 128.331C123.466 128.159 124.102 127.886 124.685 127.52C124.998 127.325 125.298 127.089 125.618 126.845C125.944 126.57 126.336 126.385 126.756 126.309C127.207 126.281 127.655 126.403 128.03 126.657C128.409 126.89 128.781 127.134 129.171 127.381L131.558 128.909C131.965 129.156 132.359 129.5 132.79 129.48C133.003 129.453 133.199 129.349 133.34 129.187C133.493 129.019 133.634 128.84 133.761 128.651C134.294 127.91 134.826 127.2 135.338 126.532C136.361 125.196 137.318 124.019 138.121 123.021C138.925 122.022 139.534 121.204 139.962 120.637L140.46 119.983C140.512 119.912 140.567 119.845 140.627 119.781V119.781Z" fill="#263238"/>
<path d="M114.555 139.662C114.624 139.489 114.71 139.324 114.812 139.168C114.986 138.858 115.254 138.413 115.592 137.87C116.288 136.784 117.255 135.312 118.435 133.753C119.615 132.194 120.76 130.847 121.623 129.901C122.054 129.427 122.409 129.051 122.667 128.797C122.79 128.658 122.925 128.53 123.07 128.415C122.967 128.567 122.851 128.711 122.722 128.843C122.468 129.138 122.131 129.521 121.727 129.984C120.895 130.951 119.764 132.309 118.595 133.864C117.426 135.42 116.42 136.874 115.717 137.939C115.369 138.454 115.101 138.879 114.889 139.206C114.79 139.367 114.679 139.519 114.555 139.662Z" fill="#263238"/>
<path d="M116.051 140.998H116.117L116.316 141.04L117.085 141.204C117.76 141.35 118.748 141.552 120.008 141.82C120.638 141.945 121.337 142.081 122.096 142.213C122.479 142.279 122.876 142.335 123.29 142.397C123.704 142.46 124.132 142.564 124.567 142.679C125.437 142.902 126.349 143.194 127.299 143.525C127.775 143.692 128.259 143.873 128.753 144.064C129 144.162 129.248 144.259 129.498 144.367L129.87 144.53L130.058 144.621L130.156 144.673L130.205 144.704L130.229 144.725C130.252 144.746 130.268 144.775 130.274 144.805V144.826L126.641 156.429C126.441 156.802 126.208 157.158 125.945 157.49C125.682 157.842 125.373 158.157 125.026 158.426C124.898 158.524 124.754 158.602 124.602 158.656L124.17 158.802L123.314 159.091L121.637 159.672L118.373 160.768L118.324 160.786L118.286 160.751L114.872 157.587L114.064 156.836C113.791 156.595 113.531 156.339 113.285 156.07C113.043 155.792 112.884 155.452 112.825 155.089C112.78 154.742 112.787 154.39 112.846 154.045C113.313 151.379 113.838 149.044 114.315 147.106C114.792 145.167 115.23 143.626 115.54 142.582L115.909 141.381L116.01 141.075C116.02 141.039 116.034 141.004 116.051 140.97C116.051 140.97 116.051 141.009 116.027 141.078C116.003 141.148 115.975 141.259 115.94 141.392L115.592 142.596C115.3 143.64 114.879 145.181 114.416 147.12C113.953 149.058 113.441 151.397 112.992 154.052C112.935 154.382 112.928 154.718 112.972 155.051C113.026 155.386 113.176 155.699 113.403 155.952C113.643 156.215 113.898 156.465 114.165 156.7L114.976 157.48L118.393 160.636H118.306L121.567 159.533L123.258 158.962L124.115 158.673L124.546 158.527C124.68 158.478 124.806 158.409 124.918 158.322C125.251 158.061 125.548 157.758 125.802 157.42C126.053 157.092 126.276 156.743 126.467 156.376V156.376L130.124 144.781L130.191 144.805C128.352 144.015 126.465 143.345 124.539 142.801C124.108 142.686 123.683 142.589 123.276 142.516C122.869 142.443 122.462 142.39 122.079 142.321C121.317 142.185 120.617 142.042 119.991 141.91C118.731 141.642 117.746 141.412 117.074 141.252L116.309 141.064L116.114 141.012C116.072 141.009 116.048 141.002 116.051 140.998Z" fill="#263238"/>
<g opacity="0.3">
<path opacity="0.3" d="M116.431 181.189C112.401 180.58 106.802 178.899 102.208 177.938C100.569 177.59 99.149 177.201 97.5099 176.86L97.228 177.768C101.883 178.772 106.386 180.378 110.626 182.546C113.173 183.851 115.7 185.375 118.533 185.789C121.703 186.256 124.887 185.281 127.929 184.317C129.669 183.771 131.461 183.176 132.689 181.854C133.556 180.917 134.05 179.706 134.506 178.516C135.705 175.368 136.755 172.166 137.655 168.911C132.185 175.057 124.563 182.421 116.431 181.189Z" fill="black"/>
</g>
<path d="M135.431 141.527L123.85 162.825C123.85 162.825 121.163 163.364 121.163 166.207C121.163 166.207 120.227 165.459 118.867 166.27C117.993 166.789 115.533 167.481 114.172 168.208C113.847 168.381 113.59 168.66 113.444 168.998C113.299 169.337 113.273 169.715 113.372 170.07L116.967 183.131C116.967 183.131 121.334 183.131 121.72 182.048L127.709 180.173C127.709 180.173 131.576 179.16 133.072 176.578C134.568 173.996 143.484 160.716 143.484 160.716" fill="#6777EF"/>
<path d="M143.484 160.716C143.484 160.716 143.46 160.765 143.404 160.852C143.348 160.939 143.261 161.067 143.157 161.234L142.183 162.713L138.536 168.226C137.76 169.409 136.903 170.71 135.981 172.123C135.059 173.536 134.067 175.054 133.072 176.7C132.528 177.546 131.802 178.259 130.946 178.788C130.063 179.355 129.111 179.808 128.113 180.134L121.748 182.132L121.804 182.076C121.709 182.279 121.548 182.443 121.348 182.542C121.162 182.642 120.966 182.721 120.763 182.779C120.361 182.9 119.948 182.987 119.531 183.04C118.681 183.155 117.824 183.216 116.967 183.221H116.897V183.155L114.868 175.784C114.502 174.46 114.141 173.148 113.786 171.848C113.612 171.194 113.438 170.568 113.264 169.907C113.21 169.561 113.262 169.207 113.415 168.893C113.567 168.578 113.812 168.317 114.116 168.146C115.282 167.601 116.476 167.12 117.694 166.705C117.986 166.59 118.275 166.475 118.553 166.357C118.826 166.203 119.108 166.067 119.399 165.95C119.7 165.838 120.022 165.799 120.34 165.834C120.659 165.87 120.965 165.98 121.233 166.155L121.094 166.221C121.079 165.4 121.355 164.6 121.873 163.963C122.391 163.363 123.083 162.942 123.853 162.759L123.798 162.8C127.257 156.467 130.163 151.149 132.202 147.408L134.586 143.072C134.864 142.575 135.076 142.195 135.223 141.927L135.39 141.639C135.407 141.605 135.427 141.572 135.449 141.541C135.449 141.541 135.449 141.576 135.4 141.642L135.244 141.941C135.104 142.209 134.896 142.596 134.631 143.097C134.085 144.109 133.291 145.585 132.289 147.454L123.937 162.877V162.908H123.899C123.165 163.087 122.506 163.489 122.013 164.06C121.52 164.667 121.26 165.43 121.278 166.211V166.374L121.143 166.277C120.897 166.12 120.618 166.023 120.328 165.993C120.038 165.962 119.745 166 119.472 166.103C119.189 166.218 118.913 166.352 118.647 166.503C118.362 166.639 118.07 166.757 117.774 166.872C116.564 167.285 115.378 167.764 114.221 168.306C113.949 168.46 113.73 168.693 113.594 168.975C113.457 169.257 113.41 169.573 113.459 169.882C113.608 170.505 113.807 171.159 113.977 171.803C114.332 173.1 114.693 174.413 115.06 175.743C115.756 178.266 116.434 180.74 117.085 183.11L117.001 183.044C117.851 183.041 118.7 182.982 119.542 182.87C119.95 182.816 120.354 182.731 120.749 182.616C120.939 182.561 121.122 182.486 121.296 182.393C121.46 182.314 121.593 182.183 121.675 182.02L121.692 181.982H121.731L128.096 179.999C129.076 179.676 130.011 179.231 130.88 178.673C131.717 178.158 132.43 177.464 132.968 176.64C133.97 174.994 134.969 173.481 135.891 172.068L138.466 168.181L142.12 162.665L143.115 161.2L143.376 160.824C143.449 160.74 143.484 160.716 143.484 160.716Z" fill="#263238"/>
<path d="M137.217 169.6C137.185 169.536 137.162 169.466 137.151 169.395C137.109 169.242 137.06 169.047 136.997 168.803C136.862 168.261 136.681 167.519 136.455 166.608C135.999 164.76 135.355 162.205 134.596 159.397C133.838 156.589 133.107 154.059 132.567 152.228L131.931 150.06L131.76 149.472C131.737 149.403 131.721 149.332 131.715 149.26C131.749 149.324 131.776 149.391 131.795 149.462L131.997 150.039C132.167 150.547 132.404 151.282 132.693 152.19C133.263 154.01 134.012 156.54 134.781 159.348C135.55 162.157 136.173 164.721 136.59 166.58C136.803 167.509 136.97 168.264 137.078 168.786L137.196 169.388C137.208 169.458 137.214 169.529 137.217 169.6Z" fill="white"/>
<path d="M132.992 176.258C132.943 176.258 131.976 171.222 130.834 164.993C129.693 158.764 128.802 153.7 128.851 153.69C128.9 153.679 129.867 158.725 131.012 164.958C132.157 171.191 133.041 176.251 132.992 176.258Z" fill="white"/>
<path d="M113.932 146.698C113.96 146.74 112.262 147.944 110.142 149.389C108.023 150.833 106.276 151.967 106.248 151.925C106.22 151.884 107.919 150.68 110.038 149.239C112.157 147.798 113.904 146.657 113.932 146.698Z" fill="white"/>
<path d="M112.805 151.243C112.732 151.342 112.648 151.43 112.554 151.508C112.383 151.671 112.136 151.898 111.823 152.173C111.197 152.726 110.32 153.471 109.321 154.261C108.322 155.051 107.4 155.743 106.721 156.227C106.373 156.47 106.106 156.662 105.911 156.791C105.813 156.862 105.708 156.924 105.597 156.975C105.677 156.882 105.768 156.8 105.869 156.731L106.645 156.122C107.306 155.614 108.214 154.911 109.21 154.118C110.205 153.324 111.096 152.601 111.74 152.072L112.509 151.452C112.598 151.37 112.697 151.3 112.805 151.243V151.243Z" fill="white"/>
<path d="M105.232 151.738C105.19 151.769 103.979 150.179 102.528 148.192C101.077 146.204 99.9285 144.565 99.9703 144.534C100.012 144.503 101.22 146.093 102.674 148.084C104.129 150.074 105.277 151.71 105.232 151.738Z" fill="white"/>
<path d="M104.63 157.838C104.404 157.685 104.197 157.505 104.014 157.302C103.666 156.954 103.172 156.446 102.674 155.858C102.177 155.27 101.759 154.713 101.474 154.295C101.305 154.082 101.163 153.848 101.052 153.599C101.249 153.787 101.425 153.994 101.578 154.219C101.888 154.616 102.319 155.155 102.813 155.74C103.308 156.324 103.77 156.843 104.104 157.215C104.3 157.405 104.476 157.614 104.63 157.838Z" fill="white"/>
<path d="M136.281 125.171C135.981 125 135.695 124.807 135.425 124.594L133.42 123.132C132.637 122.558 131.938 122.029 131.44 121.632C131.159 121.431 130.898 121.204 130.66 120.953C130.961 121.121 131.247 121.313 131.516 121.528L133.528 122.986C134.311 123.56 135.014 124.089 135.512 124.486C135.79 124.688 136.048 124.917 136.281 125.171V125.171Z" fill="white"/>
<path d="M137.867 122.972C136.993 122.365 136.154 121.708 135.355 121.006C134.516 120.348 133.715 119.644 132.954 118.897C133.83 119.504 134.67 120.162 135.47 120.867C136.308 121.522 137.109 122.225 137.867 122.972V122.972Z" fill="white"/>
<path d="M121.146 145.056C121.195 145.056 120.575 148.536 119.754 152.778C118.933 157.02 118.237 160.472 118.188 160.465C118.139 160.458 118.762 156.985 119.58 152.743C120.398 148.501 121.097 145.028 121.146 145.056Z" fill="white"/>
<path d="M129.957 170.954C129.852 170.919 129.752 170.871 129.658 170.811C129.467 170.711 129.202 170.55 128.879 170.342C128.046 169.787 127.27 169.151 126.561 168.445C125.853 167.738 125.217 166.961 124.664 166.127C124.455 165.807 124.295 165.543 124.194 165.351C124.133 165.258 124.086 165.156 124.055 165.049C124.08 165.049 124.327 165.438 124.772 166.054C125.35 166.859 125.991 167.617 126.69 168.32C127.393 169.016 128.149 169.657 128.952 170.237C129.571 170.679 129.975 170.926 129.957 170.954Z" fill="#263238"/>
<path d="M130.34 164.273C130.019 164.372 129.687 164.432 129.352 164.45C127.734 164.617 126.1 164.443 124.553 163.942C124.228 163.854 123.916 163.726 123.624 163.559C123.624 163.535 123.996 163.66 124.591 163.82C125.362 164.032 126.149 164.181 126.944 164.266C127.74 164.348 128.542 164.368 129.341 164.325C129.673 164.288 130.007 164.27 130.34 164.273V164.273Z" fill="#263238"/>
<path d="M105.455 131.188C105.451 131.217 105.442 131.245 105.43 131.272L105.336 131.508C105.26 131.717 105.128 132.02 104.95 132.403C104.602 133.172 104 134.244 103.228 135.535C102.286 137.029 101.484 138.608 100.833 140.25L100.708 140.598L100.604 140.946C100.537 141.19 100.468 141.44 100.402 141.691C100.328 141.943 100.273 142.2 100.238 142.46C100.196 142.721 100.151 142.985 100.106 143.253C100.043 143.789 100.009 144.339 99.9772 144.896C99.9772 145.174 99.9772 145.456 99.9772 145.742C99.9772 146.027 99.9772 146.309 100.002 146.594C100.17 148.766 100.47 150.925 100.899 153.06C101.24 154.801 101.479 156.56 101.616 158.329C101.686 159.08 101.651 159.769 101.662 160.372C101.613 160.97 101.585 161.489 101.533 161.91C101.481 162.331 101.404 162.637 101.362 162.87L101.314 163.117C101.309 163.146 101.301 163.174 101.289 163.201C101.286 163.172 101.286 163.143 101.289 163.114C101.289 163.049 101.3 162.965 101.32 162.863C101.352 162.63 101.397 162.306 101.456 161.903C101.515 161.499 101.515 160.967 101.554 160.368C101.533 159.769 101.554 159.087 101.481 158.336C101.325 156.575 101.074 154.825 100.729 153.091C100.292 150.963 99.9873 148.809 99.8171 146.643C99.7928 146.354 99.7893 146.069 99.7928 145.78C99.7962 145.491 99.7928 145.213 99.7928 144.927C99.8276 144.367 99.8624 143.81 99.925 143.267C99.9737 142.999 100.019 142.731 100.064 142.467C100.099 142.203 100.154 141.943 100.228 141.687C100.301 141.433 100.37 141.183 100.44 140.936L100.544 140.567C100.586 140.445 100.631 140.327 100.673 140.219C101.332 138.57 102.148 136.989 103.109 135.496C103.892 134.205 104.501 133.147 104.877 132.389C105.062 132.01 105.204 131.717 105.295 131.512C105.336 131.418 105.371 131.345 105.403 131.282C105.414 131.248 105.432 131.216 105.455 131.188V131.188Z" fill="#263238"/>
<path d="M117.273 116.92L117.228 116.993L117.088 117.195C116.967 117.376 116.768 117.63 116.507 117.95C115.982 118.594 115.185 119.492 114.179 120.595C113.681 121.152 113.135 121.757 112.544 122.412C111.952 123.066 111.339 123.783 110.751 124.583C109.549 126.392 108.778 128.453 108.5 130.607L108.329 130.558C108.61 130.026 108.937 129.519 109.307 129.044C109.495 128.79 109.683 128.536 109.857 128.279C109.944 128.15 110.031 128.021 110.108 127.889L110.222 127.691L110.278 127.59L110.302 127.538V127.513L110.323 127.482C110.335 127.469 110.349 127.458 110.366 127.452C110.382 127.446 110.4 127.444 110.417 127.447C110.433 127.45 110.449 127.457 110.462 127.466C110.475 127.476 110.486 127.488 110.494 127.503V127.524V127.552L110.515 127.607L110.556 127.719C110.588 127.79 110.612 127.865 110.63 127.941C110.675 128.092 110.709 128.245 110.73 128.401C110.78 128.704 110.799 129.012 110.79 129.319C110.708 130.473 110.517 131.616 110.219 132.733C109.812 134.905 109.067 136.763 108.625 138.36C108.237 139.613 108.02 140.912 107.981 142.223C107.976 142.579 107.993 142.934 108.03 143.288C108.03 143.4 108.054 143.493 108.061 143.563C108.067 143.595 108.067 143.628 108.061 143.66C107.955 143.189 107.903 142.707 107.905 142.223C107.917 140.902 108.117 139.59 108.5 138.326C108.928 136.714 109.655 134.846 110.052 132.698C110.342 131.591 110.529 130.458 110.609 129.316C110.617 129.019 110.597 128.722 110.549 128.429C110.529 128.28 110.496 128.133 110.452 127.99C110.437 127.917 110.415 127.846 110.386 127.778L110.344 127.673L110.327 127.621V127.593C110.355 127.593 110.257 127.618 110.393 127.559C110.334 127.527 110.476 127.597 110.459 127.593V127.618L110.452 127.656L110.396 127.764L110.278 127.969C110.195 128.105 110.111 128.237 110.021 128.366C109.843 128.627 109.655 128.881 109.467 129.138C109.104 129.602 108.783 130.097 108.507 130.617L108.249 131.16L108.336 130.569C108.619 128.386 109.406 126.3 110.636 124.475C111.232 123.668 111.861 122.961 112.45 122.304C113.038 121.646 113.598 121.047 114.106 120.498C115.122 119.405 115.933 118.521 116.469 117.895C116.737 117.578 116.942 117.334 117.074 117.16L117.228 116.969C117.248 116.938 117.269 116.917 117.273 116.92Z" fill="#263238"/>
<path d="M117.993 166.587C118.039 166.621 118.08 166.66 118.115 166.705L118.439 167.071C118.612 167.26 118.773 167.46 118.922 167.669C119.1 167.913 119.319 168.181 119.517 168.501C119.716 168.821 119.952 169.169 120.161 169.562C120.37 169.955 120.589 170.377 120.808 170.829C121.253 171.823 121.612 172.853 121.88 173.909C122.13 174.969 122.29 176.048 122.357 177.135C122.357 177.636 122.395 178.113 122.357 178.558C122.351 178.972 122.323 179.386 122.274 179.797C122.249 180.176 122.18 180.514 122.134 180.81C122.098 181.064 122.046 181.316 121.981 181.565L121.863 182.038C121.854 182.095 121.836 182.15 121.811 182.202C121.808 182.144 121.814 182.087 121.828 182.031C121.852 181.899 121.88 181.742 121.912 181.551C121.943 181.359 122.002 181.091 122.033 180.792C122.065 180.493 122.131 180.162 122.148 179.783C122.166 179.404 122.211 179 122.207 178.555C122.204 178.109 122.207 177.643 122.18 177.145C122.104 176.07 121.941 175.003 121.692 173.954C121.429 172.909 121.08 171.887 120.648 170.899C120.436 170.45 120.245 170.018 120.022 169.635C119.799 169.252 119.604 168.891 119.403 168.574C119.201 168.257 119.002 167.975 118.835 167.732C118.668 167.488 118.508 167.279 118.376 167.116L118.08 166.729C118.046 166.685 118.017 166.638 117.993 166.587V166.587Z" fill="#263238"/>
<path d="M129.042 147.631C128.862 147.588 128.686 147.529 128.517 147.454L127.1 146.935C125.9 146.5 124.229 145.947 122.35 145.449C120.471 144.952 118.741 144.6 117.478 144.381L115.989 144.13C115.804 144.109 115.622 144.074 115.442 144.026C115.629 144.02 115.815 144.032 115.999 144.061C116.347 144.096 116.866 144.162 117.499 144.256C119.14 144.507 120.766 144.847 122.371 145.272C123.992 145.7 125.589 146.215 127.156 146.813C127.751 147.047 128.228 147.241 128.548 147.391C128.719 147.457 128.885 147.537 129.042 147.631V147.631Z" fill="#263238"/>
<g opacity="0.3">
<path opacity="0.3" d="M127.156 172.176C126.901 171.705 126.569 171.281 126.175 170.919L121.177 165.832V166.207C122.287 166.963 122.524 168.494 122.844 169.799C123.164 171.104 123.443 172.499 124.351 173.491C124.71 173.909 125.201 174.19 125.743 174.288C126.011 174.334 126.287 174.304 126.54 174.201C126.792 174.098 127.01 173.927 127.17 173.707C127.294 173.47 127.358 173.207 127.356 172.939C127.354 172.672 127.285 172.41 127.156 172.176V172.176Z" fill="black"/>
</g>
<g opacity="0.3">
<path opacity="0.3" d="M120.29 160.107C119.758 160.357 119.165 160.45 118.581 160.375C118.087 160.214 117.643 159.929 117.29 159.547L113.132 155.757C114.322 157.497 115.275 159.279 116.465 161.029C116.786 161.502 117.141 162 117.676 162.195C118.212 162.39 118.86 162.219 119.416 162.007C121.417 161.238 123.226 160.043 124.72 158.506L120.29 160.107Z" fill="black"/>
</g>
<g opacity="0.3">
<path opacity="0.3" d="M115.067 138.615C118.954 136.753 120.353 131.581 124.212 129.657C125.324 129.119 126.56 128.887 127.791 128.986C129.023 129.086 130.205 129.512 131.217 130.221C131.885 130.701 132.627 131.341 133.42 131.115C134.019 130.945 134.363 130.336 134.645 129.782C135.61 127.894 136.575 126.003 137.54 124.11L133.744 128.585C133.501 128.935 133.157 129.202 132.759 129.351C131.993 129.549 131.44 128.69 130.733 128.338C128.534 127.242 126.989 125.86 125.764 126.786C125.764 126.786 123.624 128.258 122.768 128.415L115.067 138.468" fill="black"/>
</g>
<g opacity="0.3">
<path opacity="0.3" d="M108.448 142.401C108.127 140.689 108.51 138.795 109.217 137.205C109.923 135.615 110.81 134.073 111.245 132.396C111.593 131.046 111.642 129.636 111.388 128.265C111.266 127.625 111.082 126.974 111.221 126.337C111.329 125.934 111.505 125.552 111.743 125.21C112.622 123.802 113.639 122.485 114.778 121.277L117.214 117.623C117.214 117.623 117.318 121.869 117.238 122.269C116.979 123.527 116.63 124.764 116.194 125.972C115.478 127.943 114.554 129.833 113.438 131.609C112.124 133.654 110.98 135.802 110.017 138.033L108.448 142.401Z" fill="black"/>
</g>
<path d="M123.85 126.803C118.919 125.641 117.405 123.188 117.346 118.852L117.273 113.332C117.273 113.332 111.813 113.05 110.539 104.918C109.906 100.874 109.356 94.3385 109.711 88.9097C110.027 84.0377 115.094 75.4351 119.949 75.9606L133.291 82.4508C134.003 82.5281 134.66 82.8695 135.132 83.4074C135.604 83.9454 135.858 84.6409 135.842 85.3566L134.798 116.875" fill="#EFBDA8"/>
<path d="M111.795 94.8987C111.795 95.1685 111.899 95.4279 112.086 95.6226C112.273 95.8172 112.528 95.9319 112.798 95.9427C112.93 95.9536 113.064 95.9378 113.19 95.8961C113.317 95.8545 113.434 95.7879 113.534 95.7002C113.634 95.6126 113.716 95.5058 113.774 95.386C113.832 95.2663 113.866 95.1361 113.873 95.0031C113.873 94.7339 113.769 94.475 113.583 94.2804C113.397 94.0859 113.143 93.9708 112.874 93.9591C112.741 93.9487 112.608 93.9649 112.481 94.0067C112.355 94.0485 112.238 94.115 112.138 94.2025C112.037 94.29 111.955 94.3966 111.896 94.5162C111.838 94.6357 111.803 94.7658 111.795 94.8987V94.8987Z" fill="#263238"/>
<path d="M111.148 92.6541C111.259 92.7515 112.081 92.6541 113.17 92.9081C114.259 93.1621 115.004 93.6598 115.133 93.6041C115.199 93.6041 115.091 93.4301 114.767 93.2109C114.289 92.9072 113.763 92.6861 113.212 92.5566C112.682 92.4186 112.131 92.3797 111.587 92.4418C111.228 92.5079 111.092 92.6053 111.148 92.6541Z" fill="#263238"/>
<path d="M122.235 95.212C122.235 95.4823 122.34 95.7422 122.527 95.937C122.715 96.1317 122.971 96.246 123.241 96.256C123.374 96.2664 123.507 96.2502 123.633 96.2083C123.76 96.1665 123.876 96.0999 123.976 96.0124C124.076 95.9248 124.158 95.8182 124.217 95.6987C124.275 95.5791 124.309 95.4492 124.316 95.3164C124.317 95.0466 124.212 94.7871 124.025 94.5925C123.839 94.3979 123.584 94.2831 123.314 94.2724C123.181 94.2619 123.048 94.2781 122.921 94.3199C122.795 94.3617 122.678 94.4283 122.578 94.5158C122.477 94.6032 122.395 94.7099 122.336 94.8294C122.278 94.9489 122.243 95.079 122.235 95.212V95.212Z" fill="#263238"/>
<path d="M122.194 93.5277C122.357 93.566 123.077 93.0161 124.254 92.7029C125.43 92.3897 126.401 92.4767 126.502 92.3549C126.554 92.3027 126.37 92.2018 125.945 92.1531C125.329 92.1026 124.709 92.1627 124.115 92.3306C123.535 92.4741 122.989 92.7295 122.507 93.0823C122.194 93.3363 122.117 93.5103 122.194 93.5277Z" fill="#263238"/>
<path d="M118.077 100.916C118.077 100.853 117.381 100.731 116.253 100.585C115.968 100.554 115.696 100.498 115.648 100.3C115.625 100.005 115.693 99.7097 115.843 99.4541C116.114 98.7581 116.396 98.0342 116.695 97.2721C117.878 94.1714 118.734 91.6206 118.609 91.5719C118.484 91.5232 117.422 94.0079 116.239 97.1051L115.425 99.2975C115.242 99.6421 115.188 100.041 115.272 100.421C115.311 100.526 115.374 100.619 115.456 100.695C115.537 100.771 115.635 100.828 115.742 100.86C115.9 100.903 116.064 100.925 116.229 100.926C117.367 100.975 118.07 100.982 118.077 100.916Z" fill="#263238"/>
<path d="M117.273 113.412C121.099 113.48 124.869 112.483 128.162 110.534C128.162 110.534 125.416 116.262 117.273 115.476V113.412Z" fill="#D1967C"/>
<path d="M118.254 103.644C118.811 102.812 119.646 102.252 120.412 102.221C120.668 102.196 120.925 102.25 121.151 102.374C121.376 102.498 121.559 102.687 121.675 102.917C121.797 103.219 121.844 103.547 121.812 103.871C121.781 104.196 121.672 104.508 121.494 104.782C121.322 105.07 121.07 105.301 120.768 105.447C120.466 105.593 120.128 105.647 119.796 105.603C119.251 105.443 118.767 105.124 118.404 104.688C118.279 104.579 118.181 104.442 118.118 104.288C118.089 104.189 118.082 104.085 118.098 103.984C118.113 103.882 118.151 103.785 118.209 103.7" fill="#D1967C"/>
<path d="M121.376 101.699C121.191 101.699 121.188 102.906 120.144 103.787C119.1 104.667 117.805 104.511 117.795 104.681C117.777 104.758 118.084 104.918 118.63 104.935C119.343 104.944 120.038 104.704 120.593 104.257C121.125 103.823 121.467 103.199 121.546 102.517C121.588 101.995 121.459 101.692 121.376 101.699Z" fill="#263238"/>
<path d="M121.282 88.6243C121.421 88.9166 122.521 88.6626 123.847 88.6904C125.172 88.7182 126.265 88.9723 126.415 88.6904C126.477 88.5512 126.265 88.2832 125.809 88.0327C125.204 87.7285 124.538 87.566 123.861 87.5576C123.184 87.5492 122.514 87.695 121.901 87.984C121.438 88.2206 121.219 88.4816 121.282 88.6243Z" fill="#263238"/>
<path d="M110.8 90.1833C111.047 90.4374 112.008 90.1833 113.159 90.1555C114.311 90.1277 115.293 90.3225 115.519 90.0581C115.616 89.9258 115.46 89.6718 115.035 89.4317C114.441 89.1309 113.779 88.9883 113.114 89.0175C112.454 89.022 111.806 89.1996 111.235 89.5326C110.831 89.7971 110.696 90.072 110.8 90.1833Z" fill="#263238"/>
<path d="M147.518 119.252C145.746 116.388 144.299 109.25 143.69 105.635C143.081 102.019 141.156 90.4165 138.073 84.3196C134.989 78.2226 131.36 75.7588 127.8 74.7983C126.449 74.3966 125.018 74.3496 123.644 74.6616C122.271 74.9737 121 75.6344 119.956 76.5801C118.348 78.0173 117.798 82.2072 117.798 82.2072C117.798 82.2072 126.39 84.1177 129.282 89.0176C132.606 94.6447 133.413 97.474 133.413 97.474L134.488 100.554C134.488 100.554 133.479 106.512 133.096 109.459C132.714 112.407 133.316 115.138 135.741 116.332L140.613 119.781C140.613 119.781 146.989 124.113 147.281 124.336C148.642 125.38 151.311 129.337 151.311 129.337C151.311 129.337 151.14 125.109 147.518 119.252Z" fill="#263238"/>
<path d="M117.551 82.2594C117.551 82.2594 112.637 81.72 110.821 87.288C110.003 89.7971 109.373 97.032 109.373 97.032C109.373 97.032 108.656 91.2761 108.921 87.984C109.185 84.6919 110.824 80.5438 113.344 78.24C115.78 76.0024 117.868 74.9514 122.235 75.2194C122.235 75.2194 120.196 75.9154 119.075 77.5823C118.515 78.4279 118.272 79.1344 117.551 82.2594Z" fill="#263238"/>
<path d="M133.35 97.902C133.437 96.1028 135.397 94.9057 136.956 95.814C137.812 96.3116 138.469 97.3069 138.389 99.2139C138.181 104.309 133.11 103.042 133.107 102.899C133.107 102.798 133.243 100.011 133.35 97.902Z" fill="#EFBDA8"/>
<path d="M134.742 101.024C134.767 101.024 134.829 101.09 134.976 101.166C135.183 101.265 135.42 101.279 135.637 101.205C136.183 101.031 136.681 100.195 136.736 99.2801C136.767 98.8438 136.699 98.4062 136.538 97.9994C136.496 97.8408 136.416 97.6948 136.305 97.5737C136.194 97.4525 136.055 97.3598 135.901 97.3034C135.8 97.2718 135.691 97.2768 135.593 97.3175C135.495 97.3583 135.414 97.4321 135.365 97.5262C135.292 97.6654 135.32 97.7663 135.292 97.7767C135.264 97.7872 135.188 97.6862 135.237 97.4774C135.27 97.3521 135.345 97.2417 135.449 97.1642C135.595 97.0667 135.773 97.0282 135.947 97.0564C136.154 97.1072 136.344 97.2098 136.501 97.3547C136.657 97.4996 136.774 97.682 136.841 97.8846C137.039 98.3339 137.124 98.8251 137.088 99.3149C137.015 100.341 136.451 101.281 135.696 101.462C135.558 101.496 135.414 101.499 135.275 101.47C135.136 101.441 135.005 101.381 134.892 101.295C134.746 101.149 134.725 101.034 134.742 101.024Z" fill="#D1967C"/>
<path d="M125.764 74.4781C125.764 74.5164 125.068 74.4781 123.958 74.6417C123.313 74.7293 122.686 74.9171 122.1 75.1985C121.39 75.5572 120.756 76.05 120.234 76.6496C119.264 77.7349 118.558 79.0294 118.171 80.4324C117.875 81.5112 117.84 82.2107 117.802 82.2072C117.792 82.0434 117.798 81.8792 117.819 81.7165C117.863 81.2732 117.938 80.8336 118.045 80.4011C118.405 78.9635 119.11 77.6352 120.099 76.5313C121.066 75.3901 122.438 74.668 123.927 74.5164C124.37 74.467 124.817 74.4449 125.263 74.4503C125.43 74.4425 125.598 74.4518 125.764 74.4781V74.4781Z" fill="#455A64"/>
<path d="M138.062 101.584C138.058 101.556 138.058 101.528 138.062 101.5L138.104 101.264C138.125 101.156 138.153 101.027 138.181 100.877C138.209 100.728 138.229 100.529 138.257 100.348C138.403 99.2175 138.388 98.0717 138.212 96.945C137.956 95.2751 137.357 93.6765 136.451 92.2505C135.296 90.5323 133.767 89.0976 131.979 88.0536C131.064 87.4975 130.114 87 129.136 86.5642C128.193 86.1292 127.247 85.7916 126.352 85.3949C124.819 84.6771 123.342 83.843 121.936 82.8997C120.728 82.0993 119.789 81.3964 119.152 80.8987C118.835 80.6482 118.588 80.4533 118.428 80.3141L118.244 80.1575C118.202 80.1192 118.181 80.1018 118.185 80.0983L118.254 80.1436L118.449 80.2863L119.197 80.843C119.848 81.3233 120.798 82.0089 122.009 82.7919C123.425 83.7135 124.908 84.5278 126.446 85.2279C127.313 85.6176 128.266 85.9552 129.23 86.3867C130.215 86.8248 131.172 87.3246 132.094 87.8831C133.907 88.941 135.454 90.3991 136.618 92.1461C137.529 93.5941 138.122 95.2192 138.358 96.9137C138.528 98.05 138.528 99.2052 138.358 100.341L138.264 100.874C138.229 101.02 138.198 101.149 138.174 101.257L138.111 101.493C138.076 101.556 138.066 101.587 138.062 101.584Z" fill="#455A64"/>
<path d="M139.242 99.6628C139.24 99.635 139.24 99.6071 139.242 99.5793C139.242 99.5132 139.242 99.4331 139.242 99.3357C139.242 99.1199 139.266 98.8067 139.242 98.3996C139.215 95.5495 138.563 92.7401 137.332 90.1694C136.431 88.2963 135.229 86.5835 133.775 85.099C132.293 83.6409 130.616 82.3948 128.792 81.3963C127.128 80.4428 125.559 79.7085 124.268 79.0717C122.977 78.4348 121.905 77.9198 121.184 77.537C120.836 77.3525 120.551 77.189 120.363 77.0915L120.151 76.9697C120.126 76.9566 120.102 76.9402 120.081 76.921C120.081 76.921 120.109 76.921 120.161 76.9523L120.38 77.0567L121.216 77.4743C121.943 77.8223 123.008 78.3409 124.323 78.9533C125.639 79.5658 127.212 80.3036 128.889 81.2501C130.731 82.2488 132.424 83.5011 133.918 84.9703C135.384 86.4711 136.594 88.2029 137.499 90.0963C138.225 91.6461 138.747 93.2839 139.051 94.9683C139.251 96.1019 139.343 97.252 139.326 98.4031C139.326 98.8102 139.287 99.1269 139.277 99.3392C139.277 99.4366 139.259 99.5167 139.256 99.5828C139.255 99.6099 139.25 99.6368 139.242 99.6628V99.6628Z" fill="#455A64"/>
<path d="M139.092 118.695C139.06 118.647 139.035 118.596 139.016 118.542L138.824 118.089C138.741 117.891 138.643 117.648 138.553 117.359C138.463 117.07 138.341 116.743 138.25 116.37C138.202 116.182 138.149 115.991 138.097 115.789C138.045 115.587 138.007 115.372 137.958 115.152C137.854 114.71 137.791 114.234 137.707 113.736C137.565 112.646 137.483 111.55 137.46 110.451C137.444 108.457 137.542 106.465 137.756 104.483C137.836 103.724 137.906 103.112 137.961 102.687C137.989 102.492 138.01 102.339 138.028 102.2C138.034 102.142 138.045 102.085 138.062 102.029C138.07 102.087 138.07 102.146 138.062 102.203L138.028 102.694C137.989 103.146 137.941 103.738 137.881 104.497C137.763 106.017 137.599 108.123 137.638 110.447C137.659 111.539 137.737 112.628 137.871 113.712C137.947 114.209 138.007 114.686 138.101 115.104C138.146 115.323 138.181 115.535 138.229 115.74L138.372 116.318C138.452 116.691 138.563 117.014 138.647 117.31C138.73 117.606 138.814 117.846 138.887 118.048C138.96 118.25 139.002 118.396 139.047 118.511C139.073 118.569 139.089 118.631 139.092 118.695V118.695Z" fill="#455A64"/>
<path d="M74.6707 165.442C74.6707 165.442 80.2039 172.541 82.1875 173.098C84.1711 173.655 91.6844 175.516 91.6844 175.516L116.34 181.213L113.438 170.644L90.0871 170.328L74.6707 165.442Z" fill="#EFBDA8"/>
<path d="M42.9679 129.292C44.8157 133.875 54.1282 154.842 56.2858 159.696C56.4261 160.013 56.632 160.295 56.8901 160.526C57.1481 160.756 57.4522 160.929 57.7822 161.033L87.0908 170.338L116.17 172.51V171.553L92.6623 164.429L85.2359 163.559L74.1487 136.067C73.8988 135.447 73.4963 134.901 72.9785 134.479C72.4607 134.057 71.8445 133.772 71.1872 133.652L43.549 128.585C43.4574 128.569 43.3631 128.578 43.2759 128.61C43.1886 128.642 43.1115 128.697 43.0524 128.769C42.9933 128.841 42.9543 128.927 42.9395 129.019C42.9246 129.111 42.9344 129.205 42.9679 129.292Z" fill="#455A64"/>
<path d="M116.17 171.553H116.076L115.808 171.532L114.764 171.438L110.953 171.055L105.305 170.46L98.3834 169.764C95.9265 169.52 93.5845 169.336 91.4512 169.214L88.4202 169.026C88.1864 169.012 87.9539 168.981 87.7242 168.936C87.6038 168.914 87.4868 168.877 87.3762 168.824C87.2637 168.769 87.1713 168.68 87.1117 168.57C86.9293 168.183 86.769 167.786 86.6314 167.38C86.0642 165.88 85.5874 164.659 85.2777 163.799C85.1246 163.385 85.0063 163.058 84.9297 162.821L84.8392 162.564C84.8279 162.536 84.8197 162.507 84.8149 162.477C84.8149 162.477 84.8149 162.501 84.8566 162.56L84.961 162.807C85.0585 163.041 85.1872 163.364 85.3543 163.775L86.7637 167.338C86.901 167.733 87.0602 168.12 87.2404 168.497C87.2879 168.584 87.3607 168.655 87.4492 168.699C87.5475 168.742 87.6502 168.773 87.7555 168.793C87.9853 168.836 88.2179 168.863 88.4515 168.873C89.398 168.918 90.4177 168.988 91.4826 169.051C93.6193 169.162 95.9683 169.339 98.4252 169.583L105.347 170.279L110.995 170.909L114.802 171.347L115.846 171.476L116.114 171.511L116.17 171.553Z" fill="#263238"/>
<path d="M101.143 165.936C101.143 165.936 101.564 163.173 101.143 162.626C100.722 162.08 97.7605 159.418 97.7605 159.418L96.0796 157.838L92.3734 157.271C92.1545 157.237 91.9304 157.269 91.7293 157.361C91.5281 157.454 91.3588 157.604 91.2424 157.793L90.8631 158.402L89.8574 158.235L88.97 156.951H86.4992L84.6722 158.924V161.589C84.6722 161.589 84.9193 162.331 85.5631 161.788C86.2069 161.245 86.2591 159.742 86.2591 159.742L87.3553 160.751L86.1895 164.307C86.1895 164.307 87.0073 165.052 87.6023 164.307C88.1974 163.563 89.0326 162.48 89.0326 162.48C89.0326 162.48 90.0209 165.146 91.6983 165.936C93.3757 166.726 97.4264 167.446 98.2685 167.258C99.1107 167.07 100.983 167.415 101.143 165.936Z" fill="#EFBDA8"/>
<path d="M95.2792 159.874C95.2792 159.874 95.2792 159.916 95.2131 159.975C95.1319 160.059 95.0316 160.122 94.9208 160.159C94.7475 160.219 94.5644 160.245 94.3814 160.236C94.1691 160.236 93.9359 160.184 93.6854 160.159C93.4192 160.113 93.1452 160.156 92.9058 160.281C92.6586 160.483 92.4397 160.717 92.2551 160.977C92.0122 161.278 91.7122 161.528 91.3724 161.712C91.0325 161.897 90.6596 162.012 90.275 162.052C89.9567 162.076 89.6377 162.018 89.3483 161.883C89.0589 161.748 88.8089 161.542 88.622 161.283L88.5837 161.228L88.6324 161.179C89.2821 160.495 89.8811 159.764 90.4246 158.993C90.8248 158.419 91.0406 158.068 91.0614 158.078C91.0313 158.173 90.988 158.263 90.9327 158.346C90.8422 158.513 90.703 158.757 90.5116 159.042C89.9994 159.84 89.4171 160.592 88.7716 161.287V161.179C88.9428 161.413 89.1706 161.599 89.4335 161.721C89.6964 161.842 89.9859 161.895 90.275 161.875C91.0031 161.795 91.6713 161.435 92.1368 160.869C92.3351 160.6 92.5692 160.358 92.8328 160.152C93.1032 160.014 93.412 159.972 93.7097 160.03C93.9707 160.065 94.2004 160.121 94.4057 160.135C94.5774 160.15 94.7503 160.136 94.9173 160.093C95.0516 160.045 95.1748 159.971 95.2792 159.874V159.874Z" fill="#D1967C"/>
<path d="M98.1885 165.79C98.1676 165.79 98.1468 165.633 98.0354 165.372C97.8734 165.005 97.6576 164.664 97.3951 164.36C97.0749 163.963 96.633 163.531 96.2328 162.968C96.0193 162.668 95.8635 162.332 95.7734 161.976C95.6801 161.588 95.6861 161.184 95.7908 160.8C95.8943 160.419 96.0756 160.063 96.3232 159.756C96.4407 159.598 96.5932 159.471 96.7687 159.383C96.8599 159.342 96.9594 159.322 97.0595 159.325C97.1596 159.328 97.2577 159.354 97.3464 159.401C97.6399 159.583 97.8508 159.873 97.9345 160.208C98.0218 160.474 98.1385 160.73 98.2825 160.97C98.4864 161.315 98.7532 161.618 99.069 161.864C99.2917 162.042 99.4344 162.118 99.417 162.132C99.2733 162.085 99.1382 162.014 99.0168 161.924C98.6744 161.689 98.3832 161.387 98.1607 161.036C98.0154 160.792 97.8986 160.531 97.8127 160.26C97.7327 159.971 97.5463 159.722 97.2907 159.564C97.223 159.531 97.1486 159.513 97.0732 159.513C96.9977 159.513 96.9233 159.531 96.8557 159.564C96.7065 159.642 96.5778 159.754 96.4798 159.891C96.25 160.183 96.0819 160.518 95.9857 160.876C95.8857 161.232 95.8774 161.608 95.9613 161.969C96.0471 162.304 96.1921 162.621 96.3894 162.905C96.7687 163.458 97.2002 163.9 97.5134 164.314C97.7735 164.634 97.9782 164.995 98.1189 165.383C98.1558 165.489 98.1815 165.598 98.1955 165.71C98.1978 165.763 98.1955 165.79 98.1885 165.79Z" fill="#D1967C"/>
<path d="M88.7716 158.976C88.5716 158.978 88.3798 159.056 88.2357 159.195C87.9271 159.582 87.702 160.029 87.5745 160.507C87.3727 161.064 87.1987 161.572 87.056 161.934C86.9948 162.138 86.8995 162.33 86.7741 162.501C86.8028 162.293 86.8566 162.088 86.9342 161.892C87.0456 161.52 87.2021 161.005 87.404 160.445C87.5388 159.942 87.7959 159.481 88.1522 159.101C88.2759 158.991 88.4351 158.928 88.6011 158.924C88.7194 158.91 88.7751 158.948 88.7716 158.976Z" fill="#D1967C"/>
<path d="M89.0361 158.913C89.0361 158.934 88.883 158.966 88.6289 158.934C88.2866 158.886 87.9646 158.742 87.6998 158.52H87.832L87.6058 158.719C87.1951 159.106 86.7449 159.449 86.2625 159.742C86.6277 159.311 87.0384 158.921 87.4875 158.579L87.7172 158.384L87.7763 158.336L87.832 158.384C88.0747 158.592 88.3616 158.74 88.6707 158.819C88.7949 158.84 88.9171 158.872 89.0361 158.913V158.913Z" fill="#D1967C"/>
<path d="M92.9581 165.278C93.0114 165.055 93.1007 164.843 93.2225 164.648C93.4829 164.164 93.7982 163.711 94.1622 163.298C94.5255 162.884 94.9341 162.512 95.3802 162.188C95.5568 162.04 95.7567 161.923 95.9718 161.84C95.3864 162.333 94.8277 162.857 94.2979 163.41C93.8167 164.007 93.3694 164.631 92.9581 165.278V165.278Z" fill="#D1967C"/>
<path d="M72.0641 134.091C72.0846 134.118 72.0999 134.148 72.1094 134.181L72.2277 134.452L72.6592 135.496L74.2113 139.359C75.5128 142.637 77.2981 147.148 79.2747 152.127C81.2513 157.107 83.0018 161.635 84.2859 164.916C84.9158 166.549 85.4273 167.871 85.7893 168.8L86.186 169.844C86.2277 169.959 86.2591 170.049 86.2869 170.122C86.3001 170.154 86.3094 170.186 86.3147 170.22C86.297 170.191 86.2818 170.161 86.2695 170.129C86.2393 170.06 86.201 169.969 86.1546 169.858C86.0502 169.607 85.9041 169.256 85.7231 168.814L84.1676 164.951C82.8695 161.673 81.0808 157.163 79.1042 152.18C77.1275 147.196 75.3806 142.676 74.093 139.394L72.5931 135.51C72.4226 135.058 72.2903 134.703 72.1929 134.449L72.092 134.174C72.0814 134.147 72.0721 134.119 72.0641 134.091V134.091Z" fill="#263238"/>
<path d="M65.7856 149.894C66.5347 149.352 66.5431 148.085 65.8044 147.063C65.0656 146.041 63.8594 145.652 63.1103 146.194C62.3611 146.736 62.3527 148.003 63.0915 149.025C63.8303 150.046 65.0364 150.435 65.7856 149.894Z" fill="white"/>
<path d="M231.619 197.486C231.619 197.534 181.409 197.576 119.486 197.576C57.563 197.576 7.34308 197.534 7.34308 197.486C7.34308 197.437 57.556 197.395 119.5 197.395C181.444 197.395 231.619 197.433 231.619 197.486Z" fill="#263238"/>
</g>
<defs>
<clipPath id="clip0">
<rect width="240" height="240" fill="white"/>
</clipPath>
</defs>
</svg>
