<svg width="240" height="240" viewBox="0 0 240 240" fill="none" xmlns="http://www.w3.org/2000/svg">
<path d="M220 172.725H19V172.825H220V172.725Z" fill="#EBEBEB"/>
<path d="M199.86 179.193H193.87V179.294H199.86V179.193Z" fill="#EBEBEB"/>
<path d="M152.15 180.286H148.657V180.387H152.15V180.286Z" fill="#EBEBEB"/>
<path d="M192.174 175.462H178.429V175.563H192.174V175.462Z" fill="#EBEBEB"/>
<path d="M63.0713 177.537H45.7089V177.637H63.0713V177.537Z" fill="#EBEBEB"/>
<path d="M72.9122 177.537H66.649V177.637H72.9122V177.537Z" fill="#EBEBEB"/>
<path d="M121.414 176.186H83.7542V176.287H121.414V176.186Z" fill="#EBEBEB"/>
<path d="M114.274 154.796H36.6518C36.0437 154.795 35.4609 154.552 35.0313 154.122C34.6017 153.692 34.3604 153.108 34.3604 152.5V43.3853C34.3657 42.7807 34.6093 42.2026 35.0384 41.7766C35.4674 41.3506 36.0472 41.111 36.6518 41.11H114.274C114.883 41.11 115.467 41.3518 115.897 41.7823C116.328 42.2128 116.569 42.7966 116.569 43.4054V152.5C116.569 153.109 116.328 153.693 115.897 154.123C115.467 154.554 114.883 154.796 114.274 154.796V154.796ZM36.6518 41.1904C36.0704 41.1915 35.5131 41.4232 35.1024 41.8347C34.6916 42.2462 34.4609 42.8039 34.4609 43.3853V152.5C34.4609 153.082 34.6916 153.639 35.1024 154.051C35.5131 154.462 36.0704 154.694 36.6518 154.695H114.274C114.856 154.694 115.413 154.462 115.825 154.051C116.236 153.64 116.468 153.082 116.469 152.5V43.3853C116.468 42.8035 116.236 42.2458 115.825 41.8344C115.413 41.423 114.856 41.1914 114.274 41.1904H36.6518Z" fill="#EBEBEB"/>
<path d="M201.231 154.796H123.604C122.996 154.795 122.413 154.552 121.982 154.122C121.552 153.692 121.31 153.109 121.309 152.5V43.3853C121.315 42.7803 121.56 42.2023 121.99 41.7763C122.419 41.3504 122.999 41.111 123.604 41.11H201.231C201.835 41.1121 202.413 41.3521 202.841 41.778C203.27 42.2039 203.513 42.7814 203.518 43.3853V152.5C203.518 153.108 203.277 153.69 202.849 154.12C202.42 154.551 201.838 154.793 201.231 154.796V154.796ZM123.604 41.1904C123.023 41.1914 122.465 41.423 122.054 41.8344C121.642 42.2458 121.411 42.8035 121.409 43.3853V152.5C121.411 153.082 121.642 153.64 122.054 154.051C122.465 154.462 123.023 154.694 123.604 154.695H201.231C201.812 154.694 202.37 154.462 202.781 154.051C203.193 153.64 203.424 153.082 203.426 152.5V43.3853C203.424 42.8035 203.193 42.2458 202.781 41.8344C202.37 41.423 201.812 41.1914 201.231 41.1904H123.604Z" fill="#EBEBEB"/>
<path d="M191.37 162.602C180.154 159.604 166.253 162.783 136.609 165.195C106.966 167.607 114.632 149.65 80.7753 151.527C46.9189 153.405 26.437 172.725 26.437 172.725H207.771C207.771 172.725 206.119 166.534 191.37 162.602Z" fill="#FAFAFA"/>
<path d="M170.687 131.693C178.753 131.693 185.291 125.154 185.291 117.088C185.291 109.022 178.753 102.483 170.687 102.483C162.621 102.483 156.082 109.022 156.082 117.088C156.082 125.154 162.621 131.693 170.687 131.693Z" fill="#F5F5F5"/>
<path d="M174.661 132.43C175.953 124.469 170.547 116.967 162.585 115.674C154.623 114.382 147.121 119.789 145.829 127.75C144.536 135.712 149.943 143.214 157.905 144.506C165.866 145.799 173.368 140.392 174.661 132.43Z" fill="#F5F5F5"/>
<path d="M180.909 136.249C184.443 132.715 184.443 126.986 180.909 123.452C177.375 119.918 171.646 119.918 168.112 123.452C164.578 126.986 164.578 132.715 168.112 136.249C171.646 139.783 177.375 139.783 180.909 136.249Z" fill="#F5F5F5"/>
<path d="M155.017 114.76C161.797 114.76 167.294 109.264 167.294 102.483C167.294 95.7029 161.797 90.2063 155.017 90.2063C148.236 90.2063 142.74 95.7029 142.74 102.483C142.74 109.264 148.236 114.76 155.017 114.76Z" fill="#F5F5F5"/>
<path d="M87.5209 102.777C87.6813 94.7129 81.274 88.0453 73.2097 87.8849C65.1453 87.7244 58.4778 94.1317 58.3173 102.196C58.1569 110.26 64.5642 116.928 72.6285 117.088C80.6929 117.249 87.3604 110.842 87.5209 102.777Z" fill="#F5F5F5"/>
<path d="M98.2371 118.718C102.889 112.128 101.318 103.015 94.7287 98.3636C88.1393 93.7119 79.0265 95.2826 74.3748 101.872C69.723 108.461 71.2938 117.574 77.8832 122.226C84.4726 126.878 93.5854 125.307 98.2371 118.718Z" fill="#F5F5F5"/>
<path d="M64.0898 119.327C70.36 116.746 73.3511 109.571 70.7705 103.301C68.19 97.031 61.0151 94.0399 54.7449 96.6205C48.4747 99.201 45.4836 106.376 48.0642 112.646C50.6447 118.916 57.8197 121.907 64.0898 119.327Z" fill="#F5F5F5"/>
<path d="M39.8759 116.778H45.5843L43.9602 112.843L39.8759 116.778Z" fill="#E0E0E0"/>
<path d="M86.7169 113.828L62.6773 100.666L43.2527 113.828V172.725H86.7169V113.828Z" fill="#F0F0F0"/>
<path d="M86.7169 172.725H166.031V113.828H86.7169L86.7169 172.725Z" fill="#E6E6E6"/>
<path d="M86.7169 113.828H166.032V119.978L86.7169 120.987V113.828Z" fill="#E0E0E0"/>
<path d="M74.7534 132.151H50.6012V172.725H74.7534V132.151Z" fill="#E0E0E0"/>
<path d="M52.7318 133.465H48.4706V172.725H52.7318V133.465Z" fill="#FAFAFA"/>
<path d="M52.7318 172.725H53.2625L53.2625 133.466H52.7318L52.7318 172.725Z" fill="#E6E6E6"/>
<path d="M76.884 172.725H77.4146V133.466H76.884V172.725Z" fill="#E6E6E6"/>
<path d="M76.884 133.465H72.6228V172.725H76.884V133.465Z" fill="#FAFAFA"/>
<path d="M78.4854 133.733L78.339 129.474L46.7162 130.562L46.8627 134.821L78.4854 133.733Z" fill="#FAFAFA"/>
<path d="M78.9903 133.717L78.8438 129.458L78.3416 129.476L78.4881 133.734L78.9903 133.717Z" fill="#E6E6E6"/>
<path d="M62.6773 99.1548V101.651L88.8837 116.778L90.3992 114.885L62.6773 99.1548Z" fill="#FAFAFA"/>
<path d="M62.6773 99.1548V101.651L39.8759 116.778L38.3643 114.885L62.6773 99.1548Z" fill="#FAFAFA"/>
<path d="M168.387 114.885V117.381L88.8837 116.778L90.3992 114.885H168.387Z" fill="#FAFAFA"/>
<path d="M62.6773 99.1548H146.707L168.387 114.885H90.3992L62.6773 99.1548Z" fill="#EBEBEB"/>
<path d="M114.632 148.846L112.891 147.953L110.789 148.846V172.725H114.632V148.846Z" fill="#F5F5F5"/>
<path d="M142.056 148.846L140.316 147.953L138.217 148.846V172.725H142.056V148.846Z" fill="#F5F5F5"/>
<path d="M176.359 148.846L174.618 147.953L172.52 148.846V172.725H176.359V148.846Z" fill="#F5F5F5"/>
<path d="M199.365 148.846L197.621 147.953L195.522 148.846V172.725H199.365V148.846Z" fill="#F5F5F5"/>
<path d="M143.726 152.283L107.952 154.132L108.12 157.384L143.895 155.534L143.726 152.283Z" fill="#F5F5F5"/>
<path d="M201.355 152.543L170.595 154.133L170.763 157.385L201.523 155.795L201.355 152.543Z" fill="#F5F5F5"/>
<path d="M179.762 155.272L140.807 154.062L140.705 157.317L179.661 158.527L179.762 155.272Z" fill="#F5F5F5"/>
<path d="M183.937 76.0518C182.047 72.7193 178.879 70.3434 175.929 70.3434C175.083 70.3264 174.25 70.5477 173.524 70.9821C172.798 71.4164 172.209 72.0463 171.824 72.7997C170.884 71.9624 169.685 71.4729 168.427 71.4128C166.417 71.4128 165.131 73.0208 165.055 75.284C164.103 74.7829 163.057 74.4884 161.983 74.4197C159.973 74.3152 158.482 75.2237 157.847 76.7393C157.458 76.4907 157.013 76.3429 156.552 76.3091C155.387 76.2488 154.747 77.1815 155.121 78.3875C155.145 78.4638 155.173 78.5362 155.202 78.6086H187.816C187.748 77.4267 185.384 76.1121 183.937 76.0518Z" fill="#FAFAFA"/>
<path d="M92.9801 85.8807C103.795 85.8807 112.561 77.1138 112.561 66.2993C112.561 55.4848 103.795 46.7179 92.9801 46.7179C82.1655 46.7179 73.3987 55.4848 73.3987 66.2993C73.3987 77.1138 82.1655 85.8807 92.9801 85.8807Z" fill="#F0F0F0"/>
<path d="M144.231 61.0612C141.196 55.7106 136.119 51.8997 131.367 51.8997C130.011 51.8729 128.674 52.2282 127.509 52.9248C126.345 53.6214 125.4 54.6313 124.782 55.8393C123.086 54.4483 121.164 53.6162 119.331 53.6162C116.115 53.6162 114.037 56.193 113.92 59.8271C112.391 59.0263 110.711 58.5539 108.988 58.4402C105.744 58.2754 103.36 59.7588 102.351 62.1667C101.727 61.7642 101.013 61.525 100.272 61.4713C98.403 61.3788 97.378 62.8743 97.9769 64.8079C98.0171 64.9285 98.0613 65.0451 98.1015 65.1616H150.454C150.345 63.2682 146.555 61.1537 144.231 61.0612Z" fill="#FAFAFA"/>
<path d="M82.3471 76.8357C82.2592 76.8233 82.1706 76.8166 82.0818 76.8156C81.121 75.6096 80.0115 74.8418 79.0588 74.8418C78.7307 74.8434 78.4116 74.9489 78.1472 75.1432C77.8829 75.3374 77.6869 75.6105 77.5875 75.9232C75.8227 73.5835 73.7242 72.064 71.9353 72.064C70.4922 72.064 69.5233 73.0529 69.0972 74.6649C68.1485 73.7483 67.1435 73.1976 66.2511 73.1976C64.6833 73.1976 63.9114 74.8981 64.1888 77.298C63.437 76.7888 62.5713 76.4726 61.6683 76.3774C60.0804 76.2689 59.0633 77.2457 58.7899 78.8377C58.4834 78.586 58.1107 78.4282 57.7166 78.3834C56.8483 78.3231 56.4744 79.1874 56.8322 80.3733H86.7088C85.8767 78.5965 83.9793 77.0367 82.3471 76.8357Z" fill="#FAFAFA"/>
<path d="M194.32 58.2473H194.172C193.617 57.5518 192.966 57.1096 192.427 57.1096C192.238 57.1116 192.056 57.1729 191.904 57.2847C191.753 57.3966 191.64 57.5533 191.583 57.7327C190.57 56.386 189.36 55.5096 188.33 55.5096C187.498 55.5096 186.935 56.0805 186.698 57.0091C186.277 56.5322 185.691 56.2309 185.058 56.1649C184.154 56.1649 183.711 57.1418 183.852 58.5206C183.424 58.2306 182.931 58.0498 182.417 57.994C181.504 57.9297 180.918 58.4925 180.761 59.409C180.583 59.2651 180.369 59.1744 180.142 59.1477C179.643 59.1116 179.43 59.6181 179.635 60.2934H196.833C196.354 59.2603 195.261 58.3638 194.32 58.2473Z" fill="#F5F5F5"/>
<path d="M119.5 190.879C162.547 190.879 197.444 188.842 197.444 186.328C197.444 183.815 162.547 181.778 119.5 181.778C76.4528 181.778 41.5562 183.815 41.5562 186.328C41.5562 188.842 76.4528 190.879 119.5 190.879Z" fill="#F5F5F5"/>
<path d="M140.299 59.1116C139.541 58.6359 138.809 58.1206 138.105 57.5679C138.051 57.4236 137.977 57.2882 137.883 57.1659C138.33 57.3267 138.796 57.5116 139.254 57.7206C139.269 57.7248 139.284 57.7248 139.299 57.7206C139.32 57.7207 139.341 57.7147 139.36 57.7033C139.378 57.692 139.393 57.6757 139.403 57.6563C139.414 57.6284 139.415 57.5973 139.405 57.569C139.394 57.5407 139.374 57.5174 139.347 57.5036C138.76 57.2423 138.161 57.0091 137.61 56.8161C135.311 54.1187 131.697 51.2364 129.542 51.5178C129.228 51.361 128.907 51.1922 128.589 51.0153C128.577 51.0075 128.563 51.0023 128.548 51.0001C128.533 50.9978 128.518 50.9986 128.504 51.0024C128.49 51.0062 128.476 51.0128 128.465 51.022C128.453 51.0311 128.444 51.0425 128.436 51.0555C128.422 51.0817 128.417 51.1127 128.425 51.142C128.432 51.1712 128.451 51.1964 128.477 51.2123C128.714 51.3449 128.951 51.4736 129.188 51.6143C129.021 51.671 128.859 51.7437 128.706 51.8313L128.436 51.7911C128.034 51.562 127.632 51.3087 127.263 51.0394C127.25 51.0309 127.237 51.025 127.222 51.0218C127.208 51.0186 127.193 51.0184 127.178 51.021C127.164 51.0236 127.15 51.029 127.137 51.037C127.125 51.045 127.114 51.0554 127.106 51.0675C127.089 51.0927 127.082 51.1236 127.087 51.1537C127.092 51.1838 127.109 51.2106 127.134 51.2283C127.379 51.3972 127.624 51.558 127.874 51.7107L127.411 51.6585C127.382 51.6571 127.353 51.6666 127.33 51.6851C127.307 51.7036 127.292 51.7299 127.287 51.759C127.284 51.7893 127.294 51.8193 127.314 51.8425C127.333 51.8658 127.361 51.8805 127.391 51.8836C127.391 51.8836 127.793 51.9238 128.36 52.0082H128.396C126.849 53.0655 124.927 55.5619 123.994 57.0332C125.964 60.9648 135.942 63.1235 135.942 63.1235C135.942 63.1235 136.183 61.2381 137.887 58.9829C137.927 58.9239 137.962 58.8621 137.992 58.798C138.37 59.1075 138.615 59.2884 138.619 59.2965C138.642 59.3023 138.665 59.3023 138.687 59.2965C138.705 59.2964 138.723 59.2923 138.739 59.2847C138.755 59.277 138.769 59.266 138.78 59.2523C138.798 59.2276 138.805 59.197 138.801 59.167C138.796 59.1369 138.78 59.1098 138.756 59.0915C138.756 59.0915 138.49 58.8945 138.088 58.5648C138.172 58.3473 138.202 58.113 138.177 57.8814C139.262 58.7136 140.187 59.2683 140.187 59.2764C140.207 59.2819 140.228 59.2819 140.247 59.2764C140.267 59.277 140.286 59.2725 140.303 59.2633C140.32 59.2542 140.334 59.2406 140.344 59.2241C140.347 59.2031 140.345 59.1815 140.337 59.1617C140.33 59.1418 140.316 59.1245 140.299 59.1116V59.1116Z" fill="#6777EF"/>
<path d="M144.227 63.3727C144.629 63.4531 144.898 63.4933 144.906 63.4933C144.934 63.4936 144.96 63.484 144.981 63.4663C145.002 63.4485 145.015 63.4239 145.019 63.3969C145.021 63.3821 145.021 63.367 145.017 63.3524C145.013 63.3379 145.007 63.3243 144.998 63.3123C144.989 63.3003 144.977 63.2902 144.965 63.2827C144.952 63.2751 144.937 63.2702 144.922 63.2682C144.922 63.2682 144.496 63.1999 143.865 63.0672C143.753 62.9748 143.636 62.8863 143.515 62.7939C143.966 62.7939 144.432 62.7697 144.902 62.7939C144.932 62.7939 144.961 62.782 144.982 62.7609C145.003 62.7398 145.015 62.7112 145.015 62.6813C145.015 62.6517 145.004 62.6232 144.984 62.6016C144.964 62.5799 144.936 62.5668 144.906 62.5647C144.332 62.5647 143.757 62.5647 143.222 62.5929C143.029 62.4562 142.82 62.3275 142.619 62.1909C143.801 62.3677 144.681 62.424 144.693 62.424C144.722 62.4241 144.749 62.4134 144.77 62.394C144.791 62.3746 144.804 62.3479 144.806 62.3195C144.807 62.3047 144.805 62.2899 144.801 62.2758C144.796 62.2617 144.788 62.2487 144.779 62.2375C144.769 62.2263 144.757 62.2171 144.744 62.2105C144.731 62.2039 144.716 62.1999 144.701 62.1989C143.809 62.1329 142.921 62.0215 142.04 61.8652C141.331 61.4907 140.577 61.2071 139.797 61.021C134.032 59.7025 128.461 55.9197 124.557 55.1116C123.126 54.8182 121.168 54.376 119.291 54.0142C118.307 53.6047 117.351 53.1306 116.429 52.5951C116.416 52.5872 116.402 52.582 116.387 52.5797C116.372 52.5775 116.356 52.5782 116.342 52.582C116.327 52.5857 116.313 52.5924 116.301 52.6016C116.289 52.6107 116.279 52.6222 116.272 52.6353C116.257 52.661 116.253 52.6914 116.261 52.7199C116.268 52.7485 116.287 52.773 116.312 52.7881C116.714 53.0172 117.088 53.2263 117.466 53.4192C116.662 53.2102 115.89 53.0614 115.315 52.965C114.933 52.7278 114.539 52.4705 114.153 52.1931C114.129 52.1756 114.099 52.1684 114.07 52.1729C114.041 52.1774 114.014 52.1933 113.997 52.2172C113.98 52.2422 113.973 52.2726 113.978 52.3023C113.982 52.3321 113.997 52.3591 114.021 52.378C114.262 52.5509 114.507 52.7157 114.752 52.8765C114.467 52.8323 114.298 52.8122 114.29 52.8122C114.275 52.8106 114.26 52.812 114.246 52.8162C114.232 52.8204 114.219 52.8273 114.207 52.8366C114.195 52.846 114.186 52.8575 114.179 52.8706C114.172 52.8836 114.167 52.8979 114.165 52.9127C114.164 52.9275 114.165 52.9424 114.169 52.9567C114.174 52.971 114.181 52.9843 114.19 52.9958C114.199 53.0074 114.211 53.017 114.224 53.0241C114.237 53.0313 114.251 53.0357 114.266 53.0373C114.266 53.0373 114.668 53.0856 115.231 53.182C115.379 53.2745 115.524 53.3629 115.665 53.4433C114.149 53.2986 113.16 53.3991 113.369 53.9901C113.812 55.2564 116.561 56.8282 119.982 57.6322C119.408 57.6081 118.776 57.5638 118.149 57.4834C118.12 57.4811 118.09 57.4902 118.067 57.5089C118.044 57.5276 118.029 57.5545 118.025 57.5839C118.021 57.6132 118.029 57.6427 118.047 57.666C118.065 57.6893 118.092 57.7046 118.121 57.7086C119.095 57.8261 120.075 57.8825 121.056 57.8774H121.213C121.667 57.9538 122.125 58.0221 122.595 58.0704C127.142 58.5206 135.596 66.0179 140.943 67.445C147.334 69.1455 147.005 65.8933 144.227 63.3727Z" fill="#6777EF"/>
<path opacity="0.3" d="M144.227 63.3727C144.629 63.4531 144.898 63.4933 144.906 63.4933C144.934 63.4936 144.96 63.484 144.981 63.4663C145.002 63.4485 145.015 63.4239 145.019 63.3969C145.021 63.3821 145.021 63.367 145.017 63.3524C145.013 63.3379 145.007 63.3243 144.998 63.3123C144.989 63.3003 144.977 63.2902 144.965 63.2827C144.952 63.2751 144.937 63.2702 144.922 63.2682C144.922 63.2682 144.496 63.1999 143.865 63.0672C143.753 62.9748 143.636 62.8863 143.515 62.7939C143.966 62.7939 144.432 62.7697 144.902 62.7939C144.932 62.7939 144.961 62.782 144.982 62.7609C145.003 62.7398 145.015 62.7112 145.015 62.6813C145.015 62.6517 145.004 62.6232 144.984 62.6016C144.964 62.5799 144.936 62.5668 144.906 62.5647C144.332 62.5647 143.757 62.5647 143.222 62.5929C143.029 62.4562 142.82 62.3275 142.619 62.1909C143.801 62.3677 144.681 62.424 144.693 62.424C144.722 62.4241 144.749 62.4134 144.77 62.394C144.791 62.3746 144.804 62.3479 144.806 62.3195C144.807 62.3047 144.805 62.2899 144.801 62.2758C144.796 62.2617 144.788 62.2487 144.779 62.2375C144.769 62.2263 144.757 62.2171 144.744 62.2105C144.731 62.2039 144.716 62.1999 144.701 62.1989C143.809 62.1329 142.921 62.0215 142.04 61.8652C141.331 61.4907 140.577 61.2071 139.797 61.021C134.032 59.7025 128.461 55.9197 124.557 55.1116C123.126 54.8182 121.168 54.376 119.291 54.0142C118.307 53.6047 117.351 53.1306 116.429 52.5951C116.416 52.5872 116.402 52.582 116.387 52.5797C116.372 52.5775 116.356 52.5782 116.342 52.582C116.327 52.5857 116.313 52.5924 116.301 52.6016C116.289 52.6107 116.279 52.6222 116.272 52.6353C116.257 52.661 116.253 52.6914 116.261 52.7199C116.268 52.7485 116.287 52.773 116.312 52.7881C116.714 53.0172 117.088 53.2263 117.466 53.4192C116.662 53.2102 115.89 53.0614 115.315 52.965C114.933 52.7278 114.539 52.4705 114.153 52.1931C114.129 52.1756 114.099 52.1684 114.07 52.1729C114.041 52.1774 114.014 52.1933 113.997 52.2172C113.98 52.2422 113.973 52.2726 113.978 52.3023C113.982 52.3321 113.997 52.3591 114.021 52.378C114.262 52.5509 114.507 52.7157 114.752 52.8765C114.467 52.8323 114.298 52.8122 114.29 52.8122C114.275 52.8106 114.26 52.812 114.246 52.8162C114.232 52.8204 114.219 52.8273 114.207 52.8366C114.195 52.846 114.186 52.8575 114.179 52.8706C114.172 52.8836 114.167 52.8979 114.165 52.9127C114.164 52.9275 114.165 52.9424 114.169 52.9567C114.174 52.971 114.181 52.9843 114.19 52.9958C114.199 53.0074 114.211 53.017 114.224 53.0241C114.237 53.0313 114.251 53.0357 114.266 53.0373C114.266 53.0373 114.668 53.0856 115.231 53.182C115.379 53.2745 115.524 53.3629 115.665 53.4433C114.149 53.2986 113.16 53.3991 113.369 53.9901C113.812 55.2564 116.561 56.8282 119.982 57.6322C119.408 57.6081 118.776 57.5638 118.149 57.4834C118.12 57.4811 118.09 57.4902 118.067 57.5089C118.044 57.5276 118.029 57.5545 118.025 57.5839C118.021 57.6132 118.029 57.6427 118.047 57.666C118.065 57.6893 118.092 57.7046 118.121 57.7086C119.095 57.8261 120.075 57.8825 121.056 57.8774H121.213C121.667 57.9538 122.125 58.0221 122.595 58.0704C127.142 58.5206 135.596 66.0179 140.943 67.445C147.334 69.1455 147.005 65.8933 144.227 63.3727Z" fill="black"/>
<path d="M120.859 89.8444L120.642 90.1902L120.449 90.4756L120.075 91.0223C119.826 91.3801 119.564 91.7218 119.307 92.0635C118.788 92.7509 118.238 93.3981 117.671 94.0453C117.104 94.6926 116.505 95.3076 115.886 95.9187C115.267 96.5297 114.62 97.1247 113.928 97.6875C113.237 98.2503 112.533 98.805 111.778 99.3276C111.001 99.855 110.195 100.339 109.366 100.779C108.498 101.245 107.598 101.648 106.672 101.985C105.689 102.326 104.679 102.586 103.653 102.761L103.171 102.845C102.886 102.893 102.595 102.893 102.31 102.845C101.158 102.646 100.021 102.369 98.9055 102.017C97.8413 101.677 96.7948 101.284 95.7699 100.839C95.2674 100.614 94.7689 100.385 94.2785 100.144C93.7881 99.9025 93.3097 99.6372 92.8313 99.3759C92.3529 99.1146 91.8906 98.8251 91.4283 98.5317C90.966 98.2382 90.5278 97.9367 90.0414 97.5789C89.5969 97.2526 89.2685 96.7926 89.104 96.2663C88.9396 95.7399 88.9477 95.1748 89.1274 94.6534C89.307 94.132 89.6487 93.6818 90.1024 93.3684C90.5562 93.0551 91.0982 92.895 91.6494 92.9117H91.9429C92.3971 92.9117 92.9117 92.9921 93.3981 93.0283L94.8654 93.177L96.3166 93.3177C96.795 93.37 97.2734 93.4102 97.7438 93.4504C98.6885 93.5509 99.6211 93.5951 100.522 93.6474C101.422 93.6996 102.298 93.7077 103.127 93.6996L101.812 93.772C102.771 93.4302 103.682 92.9654 104.521 92.3891C105.004 92.0623 105.47 91.7107 105.916 91.3359C106.387 90.966 106.849 90.5319 107.307 90.1299C108.212 89.2575 109.116 88.3128 109.973 87.3159C110.403 86.8214 110.817 86.2988 111.231 85.7883L111.834 85.0124L112.356 84.321L112.545 84.0717C113.331 83.0148 114.497 82.305 115.797 82.0923C117.097 81.8796 118.429 82.1808 119.51 82.9321C120.592 83.6833 121.339 84.8259 121.594 86.1181C121.849 87.4104 121.591 88.751 120.875 89.8565L120.859 89.8444Z" fill="#FFC3BD"/>
<path d="M125.53 81.6356C124.3 92.5379 109.289 101.764 109.289 101.764C106.105 101.414 102.97 96.1358 102.52 92.6947C102.52 92.6947 111.733 79.8025 116.405 77.2538C120.706 74.878 126.069 76.6709 125.53 81.6356Z" fill="#263238"/>
<path d="M103.504 90.6967C102.552 91.6132 101.856 92.3047 101.86 93.3458C102.214 94.3267 104.477 101.514 106.001 102.511C107.524 103.508 109.804 102.186 111.757 100.779C111.91 96.9196 106.037 94.8734 103.504 90.6967Z" fill="#263238"/>
<path opacity="0.2" d="M103.504 90.6967C102.552 91.6132 101.856 92.3047 101.86 93.3458C102.214 94.3267 104.477 101.514 106.001 102.511C107.524 103.508 109.804 102.186 111.757 100.779C111.91 96.9196 106.037 94.8734 103.504 90.6967Z" fill="white"/>
<path d="M92.2484 93.1569L92.3972 96.0835C91.4525 99.018 87.8907 97.1487 87.8907 97.1487L85.8164 96.9437C85.4529 96.8829 85.1226 96.6953 84.8842 96.4142C84.6458 96.1331 84.5146 95.7767 84.5139 95.4081L84.3974 93.3619C84.3435 92.9423 84.4572 92.5184 84.7138 92.182C84.9704 91.8456 85.3492 91.6239 85.7682 91.565L87.5852 91.4484C88.1124 91.416 88.6395 91.5125 89.1209 91.7298L92.2484 93.1569Z" fill="#FFC3BD"/>
<path d="M120.388 75.3724C126.831 74.7602 133.321 74.8627 139.741 75.678C143.451 76.2006 146.072 78.492 145.622 86.13C144.709 101.551 144.171 113.796 142.209 119.339C142.209 119.339 117.651 127.118 109.514 119.279C107.532 100.715 112.151 85.5109 115.191 79.0789C115.664 78.0657 116.392 77.192 117.302 76.5426C118.213 75.8933 119.276 75.4902 120.388 75.3724Z" fill="#263238"/>
<path opacity="0.2" d="M121.739 99.9788C121.712 99.9791 121.685 99.9695 121.665 99.9517C121.644 99.934 121.63 99.9093 121.627 99.8824C121.486 98.9618 121.844 97.9447 122.157 97.0442C122.365 96.5277 122.51 95.9877 122.587 95.4362C122.611 95.0342 122.587 94.6041 122.587 94.2061C122.531 93.5387 122.584 92.8667 122.744 92.2162L122.861 91.8504C123.094 91.1308 123.263 90.6082 123.09 90.0736C122.973 89.7158 123.206 88.9078 123.456 88.0636C123.677 87.2998 123.926 86.4314 123.817 86.146C123.56 85.4666 123.54 84.8717 124.135 83.4928C124.371 82.8955 124.455 82.2492 124.38 81.6115C124.309 81.1323 124.375 80.6427 124.573 80.2004C124.58 80.1871 124.589 80.1753 124.601 80.1658C124.612 80.1562 124.626 80.1492 124.64 80.145C124.654 80.1409 124.669 80.1397 124.684 80.1417C124.699 80.1436 124.713 80.1485 124.726 80.1562C124.752 80.1706 124.771 80.1948 124.78 80.2235C124.788 80.2521 124.785 80.2828 124.77 80.309C124.594 80.7147 124.538 81.1627 124.609 81.5994C124.686 82.2731 124.594 82.9552 124.344 83.5853C123.777 84.8958 123.789 85.4305 124.031 86.0656C124.167 86.4194 123.926 87.2716 123.673 88.1279C123.456 88.8756 123.21 89.7359 123.307 90.0133C123.504 90.6203 123.307 91.1992 123.078 91.9348C123.038 92.0514 123.001 92.172 122.961 92.2966C122.809 92.9236 122.76 93.5714 122.816 94.2142C122.816 94.6162 122.837 95.0182 122.816 95.4604C122.738 96.0354 122.588 96.5985 122.37 97.1367C122.065 98.009 121.719 99.002 121.852 99.8623C121.854 99.8771 121.853 99.8922 121.85 99.9067C121.846 99.9212 121.839 99.9349 121.83 99.9469C121.821 99.9588 121.81 99.9689 121.797 99.9765C121.784 99.984 121.77 99.9889 121.755 99.9909L121.739 99.9788Z" fill="white"/>
<path d="M122.611 151.379C125.317 140.951 132.384 128.521 127.914 118.483L108.493 118.423C108.493 118.423 108.011 139.089 107.878 148.842C107.737 158.98 108.61 171.595 108.61 171.595L116.557 172.198C116.557 172.198 121.976 163.081 122.611 151.379Z" fill="#6777EF"/>
<path d="M116.931 172.512L108.344 171.881C108.271 171.876 108.203 171.845 108.151 171.793C108.099 171.741 108.068 171.672 108.063 171.599L107.878 168.415C107.875 168.371 107.882 168.326 107.899 168.285C107.916 168.243 107.941 168.206 107.974 168.176C108.006 168.145 108.046 168.122 108.088 168.109C108.131 168.096 108.176 168.092 108.22 168.098L117.743 169.348C117.786 169.353 117.828 169.368 117.865 169.391C117.902 169.414 117.933 169.444 117.957 169.481C117.981 169.517 117.996 169.558 118.002 169.601C118.008 169.644 118.005 169.688 117.992 169.73L117.241 172.279C117.225 172.348 117.185 172.409 117.128 172.451C117.072 172.494 117.002 172.515 116.931 172.512Z" fill="#263238"/>
<path opacity="0.2" d="M127.982 128.344C128.058 130.808 127.959 133.275 127.685 135.725C126.736 139.005 125.522 142.289 124.437 145.473C123.009 136.472 123.005 125.96 127.982 128.344Z" fill="black"/>
<path d="M142.965 148.006C143.905 137.461 147.387 123.271 144.022 118.423H120.778C120.778 118.423 125.405 139.439 127.307 149.164C129.281 159.278 134.945 172.15 134.945 172.15H142.474C142.474 172.15 145.357 160.034 142.965 148.006Z" fill="#6777EF"/>
<path d="M143.009 172.455H134.479C134.411 172.455 134.346 172.431 134.294 172.388C134.242 172.345 134.206 172.285 134.193 172.218L133.634 169.191C133.627 169.146 133.629 169.099 133.642 169.054C133.654 169.01 133.676 168.968 133.707 168.933C133.737 168.898 133.775 168.871 133.817 168.852C133.86 168.833 133.906 168.824 133.952 168.825L143.234 169.227C143.273 169.229 143.311 169.239 143.346 169.256C143.381 169.273 143.413 169.297 143.439 169.326C143.464 169.355 143.484 169.389 143.497 169.426C143.509 169.463 143.514 169.502 143.511 169.541L143.318 172.158C143.314 172.238 143.28 172.313 143.223 172.368C143.165 172.423 143.089 172.455 143.009 172.455V172.455Z" fill="#263238"/>
<path d="M122.531 77.0568C123.271 76.3332 124.047 76.7553 124.404 75.6619C124.564 74.8031 124.422 73.9156 124.002 73.1494L132.806 68.3978C132.633 71.6379 132.505 74.1946 133.94 75.485C134.342 77.897 130.266 79.9271 124.983 79.6739C122.499 79.5573 121.466 78.094 122.531 77.0568Z" fill="#FFC3BD"/>
<path opacity="0.2" d="M124.127 73.4227L131.082 71.6861C129.325 74.4478 126.157 75.9634 124.457 75.3041C124.511 74.659 124.398 74.0108 124.127 73.4227V73.4227Z" fill="black"/>
<path d="M123.745 58.8382C122.726 59.5828 121.753 60.3882 120.831 61.2502C121.166 61.3527 121.524 61.3527 121.86 61.2502C120.991 62.7617 121.329 64.832 121.767 65.4471C123.922 63.425 123.745 58.8382 123.745 58.8382Z" fill="#263238"/>
<path d="M127.005 57.5679C130.374 57.9015 135.102 60.8924 134.688 64.5345C134.209 68.7676 133.08 71.5132 130.217 72.9323C124.489 75.7463 121.695 73.0328 121.229 68.6751C120.807 64.7556 122.246 57.1015 127.005 57.5679Z" fill="#FFC3BD"/>
<path d="M132.766 60.2532C132.987 62.0743 132.726 63.8471 131.753 64.3416C133.063 64.3818 133.534 64.1245 133.534 64.1245C133.534 64.1245 131.206 65.8933 132.766 67.0269C133.935 66.3134 134.952 65.3779 135.761 64.2732C135.761 64.2732 135.463 61.9256 132.766 60.2532Z" fill="#263238"/>
<path opacity="0.2" d="M128.621 64.3215C129.152 64.146 129.73 64.188 130.229 64.4381C129.691 64.505 129.145 64.4654 128.621 64.3215V64.3215Z" fill="black"/>
<path opacity="0.2" d="M128.621 64.7074C128.871 64.6793 129.124 64.7062 129.362 64.7861C129.6 64.8659 129.818 64.9968 130 65.1697C129.512 65.1182 129.042 64.9604 128.621 64.7074Z" fill="black"/>
<path d="M125.9 68.848C125.706 68.8483 125.512 68.8335 125.321 68.8037C125.291 68.7988 125.265 68.7827 125.247 68.7587C125.229 68.7348 125.221 68.7048 125.224 68.6751C125.226 68.6598 125.231 68.6452 125.239 68.6319C125.247 68.6187 125.258 68.6072 125.27 68.5982C125.282 68.5891 125.297 68.5827 125.312 68.5794C125.327 68.576 125.342 68.5757 125.357 68.5786C125.837 68.6621 126.331 68.6309 126.797 68.4877C127.262 68.3445 127.688 68.0933 128.038 67.7545C128.06 67.7327 128.09 67.7204 128.121 67.7204C128.152 67.7204 128.181 67.7327 128.203 67.7545C128.224 67.7762 128.235 67.805 128.235 67.8349C128.235 67.8649 128.224 67.8936 128.203 67.9153C127.9 68.2158 127.541 68.453 127.145 68.6131C126.75 68.7732 126.326 68.8531 125.9 68.848V68.848Z" fill="#263238"/>
<path d="M135.737 68.2611C135.442 68.6596 135.072 68.9961 134.647 69.2513C134.222 69.5065 133.751 69.6755 133.26 69.7485C131.942 69.9294 131.447 68.7073 131.954 67.5576C132.408 66.5204 133.638 65.1737 134.897 65.5194C136.155 65.8652 136.452 67.2641 135.737 68.2611Z" fill="#FFC3BD"/>
<path d="M121.237 65.6641C120.601 68.3575 119.749 70.6771 120.529 71.6941C120.625 71.5082 120.742 71.3341 120.879 71.1755C120.912 71.8345 121.1 72.4763 121.428 73.0485C121.757 73.6208 122.216 74.1071 122.768 74.4679C122.843 74.2225 122.886 73.9685 122.897 73.7122C122.897 73.7122 124.686 74.7292 128.621 73.877C128.515 74.0216 128.442 74.1871 128.405 74.3625C128.368 74.5379 128.369 74.7191 128.408 74.894C129.657 74.5746 130.742 73.8024 131.453 72.7273C132.164 71.6522 132.45 70.3512 132.255 69.0771C132.117 68.0521 132.326 67.0102 132.85 66.1184C132.85 66.1184 132.276 65.5797 131.596 66.4882C130.917 67.3967 130.29 71.6861 128.239 71.075C126.483 70.5524 125.759 70.3193 124.702 71.1193C123.448 69.9856 122.181 69.451 121.707 69.7726C121.257 69.1615 121.188 66.9907 121.237 65.6641Z" fill="#263238"/>
<path d="M128.798 73.5674C128.231 74.1905 126.302 74.7332 125.458 74.8217C125.761 74.5562 125.984 74.2108 126.101 73.8247L128.798 73.5674Z" fill="#263238"/>
<path d="M127.878 64.4259C127.854 64.7958 127.636 65.0812 127.391 65.0651C127.146 65.049 126.989 64.7315 126.989 64.3576C126.989 63.9837 127.23 63.7023 127.476 63.7224C127.721 63.7425 127.902 64.0521 127.878 64.4259Z" fill="#263238"/>
<path d="M123.526 64.1568C123.548 63.7867 123.369 63.4747 123.125 63.46C122.881 63.4453 122.666 63.7334 122.643 64.1035C122.621 64.4736 122.801 64.7856 123.044 64.8003C123.288 64.815 123.504 64.5269 123.526 64.1568Z" fill="#263238"/>
<path d="M124.477 64.5225L124.497 67.646C124.497 67.646 123.492 67.8952 122.889 67.3485C123.165 66.2853 123.713 65.3117 124.477 64.5225Z" fill="#ED847E"/>
<path d="M128.541 63.4773C128.578 63.4852 128.616 63.4852 128.654 63.4773C128.68 63.4679 128.705 63.4531 128.726 63.434C128.747 63.4148 128.765 63.3917 128.777 63.3658C128.789 63.3399 128.795 63.3119 128.796 63.2834C128.797 63.2549 128.792 63.2265 128.782 63.1999C128.672 62.8698 128.486 62.5705 128.237 62.3266C127.989 62.0828 127.687 61.9012 127.355 61.7969C127.327 61.7897 127.298 61.7882 127.269 61.7924C127.241 61.7967 127.213 61.8066 127.189 61.8215C127.164 61.8365 127.142 61.8563 127.125 61.8797C127.108 61.903 127.096 61.9296 127.09 61.9577C127.078 62.0147 127.088 62.0741 127.119 62.1236C127.149 62.1731 127.198 62.2087 127.255 62.223C127.516 62.308 127.754 62.454 127.949 62.6491C128.143 62.8441 128.288 63.0825 128.372 63.3446C128.388 63.3786 128.411 63.4084 128.44 63.4315C128.47 63.4546 128.504 63.4703 128.541 63.4773V63.4773Z" fill="#263238"/>
<path d="M121.293 62.617C121.329 62.6162 121.364 62.6067 121.396 62.5892C121.427 62.5717 121.454 62.5467 121.474 62.5165C121.612 62.2798 121.805 62.0799 122.036 61.9336C122.268 61.7874 122.531 61.6991 122.804 61.6763C122.862 61.6742 122.917 61.6494 122.957 61.6073C122.997 61.5652 123.019 61.5091 123.017 61.4512C123.014 61.3936 122.989 61.3394 122.947 61.2997C122.906 61.2601 122.85 61.238 122.792 61.2381C122.448 61.263 122.115 61.3707 121.821 61.552C121.527 61.7332 121.281 61.9827 121.104 62.2793C121.074 62.3285 121.064 62.3876 121.077 62.444C121.089 62.5003 121.124 62.5494 121.172 62.5808C121.208 62.6037 121.25 62.6162 121.293 62.617Z" fill="#263238"/>
<path d="M144.022 118.423C144.511 116.226 144.78 113.987 144.826 111.737C144.84 111.332 144.739 110.93 144.535 110.58C144.331 110.229 144.032 109.943 143.672 109.755C142.035 108.868 140.653 107.575 139.659 106C138.664 104.426 138.09 102.622 137.992 100.763C137.964 100.269 137.792 99.7938 137.498 99.396C137.204 98.9982 136.8 98.695 136.336 98.5236C129.12 95.9146 118.877 96.4653 114.628 97.3497C114.087 97.4575 113.596 97.741 113.233 98.156C112.869 98.5711 112.653 99.0946 112.618 99.6452C112.405 103.038 111.633 108.228 109.559 109.349C109.255 109.5 108.989 109.717 108.78 109.984C108.571 110.251 108.425 110.562 108.353 110.893C107.661 114.571 108.513 118.423 108.513 118.423C108.513 118.423 121.675 120.646 144.022 118.423Z" fill="#6777EF"/>
<path opacity="0.2" d="M123.146 105.221H123.118C122.925 105.177 118.463 104.111 117.028 101.555C117.019 101.538 117.014 101.519 117.014 101.5C117.014 101.481 117.019 101.463 117.028 101.446C117.037 101.43 117.05 101.416 117.065 101.406C117.08 101.396 117.098 101.389 117.116 101.386C120.264 101.032 129.084 101.265 131.894 102.101C131.914 102.109 131.932 102.121 131.946 102.137C131.96 102.153 131.97 102.173 131.974 102.194C131.976 102.215 131.973 102.237 131.965 102.256C131.956 102.276 131.943 102.293 131.926 102.306C129.236 104.216 123.227 105.213 123.166 105.221H123.146ZM117.317 101.603C118.744 103.878 122.817 104.919 123.15 105.004C123.552 104.935 128.947 103.999 131.592 102.262C128.637 101.486 120.497 101.273 117.317 101.591V101.603Z" fill="black"/>
<path opacity="0.2" d="M123.307 112.103H123.202C119.797 112.103 117.9 111.645 117.048 110.616C116.196 109.587 116.473 107.987 116.855 106.001C117.074 104.945 117.236 103.878 117.341 102.805C117.345 102.775 117.36 102.748 117.383 102.729C117.406 102.709 117.436 102.699 117.466 102.7C117.481 102.701 117.495 102.705 117.508 102.712C117.521 102.719 117.533 102.728 117.542 102.739C117.551 102.751 117.558 102.764 117.563 102.778C117.567 102.792 117.568 102.806 117.566 102.821C117.462 103.901 117.299 104.975 117.076 106.037C116.706 107.967 116.413 109.486 117.225 110.459C118.037 111.432 119.87 111.862 123.202 111.862H123.307C127.114 111.862 129.216 111.862 130.274 110.72C131.331 109.579 131.351 107.323 131.078 103.215C131.076 103.185 131.087 103.156 131.106 103.134C131.125 103.112 131.153 103.097 131.182 103.094C131.212 103.093 131.242 103.103 131.265 103.122C131.288 103.142 131.303 103.169 131.307 103.199C131.6 107.464 131.548 109.699 130.45 110.877C129.353 112.055 127.178 112.103 123.307 112.103Z" fill="black"/>
<path d="M123.202 104.047C123.453 104.047 123.657 103.844 123.657 103.593C123.657 103.342 123.453 103.139 123.202 103.139C122.952 103.139 122.748 103.342 122.748 103.593C122.748 103.844 122.952 104.047 123.202 104.047Z" fill="white"/>
<path d="M117.675 95.2353L114.861 95.4524C114.673 95.4657 114.487 95.4044 114.344 95.2817C114.201 95.159 114.113 94.9849 114.097 94.7971V94.7971C114.084 94.6096 114.145 94.4245 114.268 94.2821C114.391 94.1397 114.565 94.0518 114.752 94.0374L117.566 93.8243C117.659 93.8166 117.752 93.8274 117.841 93.8561C117.93 93.8847 118.012 93.9307 118.082 93.9913C118.153 94.0518 118.211 94.1258 118.253 94.209C118.295 94.2921 118.32 94.3827 118.326 94.4755V94.4755C118.333 94.5682 118.322 94.6613 118.293 94.7497C118.264 94.838 118.218 94.9198 118.158 94.9903C118.097 95.0609 118.024 95.1188 117.941 95.1609C117.858 95.2029 117.768 95.2282 117.675 95.2353V95.2353Z" fill="white"/>
<path d="M115.299 97.3096L115.379 94.1177C115.388 93.9006 115.474 93.6937 115.621 93.5339C115.769 93.3741 115.968 93.2719 116.183 93.2454V93.2454C116.284 93.2354 116.386 93.2473 116.482 93.2802C116.577 93.3132 116.665 93.3664 116.738 93.4362C116.811 93.506 116.869 93.5909 116.906 93.6849C116.944 93.7789 116.96 93.8799 116.955 93.981L116.871 97.1729C116.863 97.3903 116.777 97.5976 116.63 97.7575C116.483 97.9175 116.283 98.0195 116.067 98.0452V98.0452C115.966 98.0553 115.865 98.0434 115.769 98.0104C115.674 97.9775 115.587 97.9242 115.514 97.8543C115.441 97.7844 115.384 97.6995 115.347 97.6054C115.31 97.5114 115.293 97.4105 115.299 97.3096V97.3096Z" fill="white"/>
<path d="M119.681 75.3362C118.776 76.4257 115.259 81.3984 115.002 94.5759C114.999 94.6248 115.016 94.6725 115.048 94.7093C115.081 94.746 115.126 94.7688 115.174 94.7729C115.81 94.786 116.446 94.751 117.076 94.6684C117.121 94.6634 117.163 94.6418 117.194 94.6076C117.224 94.5735 117.241 94.5292 117.241 94.4835C117.241 93.0283 117.434 82.1783 121.711 75.2679C121.728 75.2387 121.738 75.2055 121.738 75.1715C121.738 75.1376 121.729 75.1043 121.711 75.0751C121.694 75.0459 121.669 75.0219 121.639 75.0056C121.61 74.9893 121.576 74.9813 121.542 74.9825C120.937 74.9981 120.338 75.0996 119.761 75.284C119.73 75.2937 119.702 75.3117 119.681 75.3362V75.3362Z" fill="#6777EF"/>
<path d="M124.702 79.6538C126.29 79.4568 127.604 77.9613 127.604 77.9613C127.604 77.9613 131.789 76.9322 132.935 74.8981C133.051 74.6868 133.243 74.5277 133.472 74.453C133.702 74.3784 133.951 74.3938 134.169 74.4961C134.612 74.679 135.027 74.9226 135.403 75.2197C135.403 75.2197 132.645 82.1984 124.702 79.6538Z" fill="#263238"/>
<path d="M127.604 77.9613C127.604 77.9613 129.14 79.7703 129.08 81.9813C132.899 80.4135 135.68 76.5503 135.793 74.9664C134.185 73.8368 133.208 74.066 133.208 74.066C133.208 74.066 131.001 76.9644 127.604 77.9613Z" fill="#6777EF"/>
<path d="M124.702 79.6538C124.135 79.1995 124.167 78.1543 124.497 77.8769C124.36 76.9604 124.497 76.478 124.469 75.0629C123.03 74.9705 121.767 76.5664 121.313 77.6639C120.859 78.7613 123.733 79.8829 124.702 79.6538Z" fill="#263238"/>
<path d="M124.497 77.8769C123.476 78.3754 122.523 80.1643 122.736 81.2497C121.096 80.1522 120.971 76.4257 123.013 75.075C123.504 74.8217 124.469 75.075 124.469 75.075C124.469 75.075 124.694 77.0327 124.497 77.8769Z" fill="#6777EF"/>
<path d="M125.968 85.0044C125.9 85.4064 125.679 85.724 125.474 85.6878C125.269 85.6516 125.16 85.2858 125.228 84.8838C125.297 84.4818 125.518 84.1642 125.723 84.2004C125.928 84.2366 126.037 84.5903 125.968 85.0044Z" fill="white"/>
<path d="M125.341 89.4626C125.313 89.8646 125.12 90.2063 124.911 90.1902C124.702 90.1741 124.565 89.8244 124.593 89.3862C124.621 88.948 124.818 88.6465 125.027 88.6626C125.237 88.6787 125.373 89.0485 125.341 89.4626Z" fill="white"/>
<path d="M124.67 94.2583C124.638 94.6603 124.445 95.002 124.24 94.986C124.035 94.9699 123.89 94.6201 123.922 94.182C123.954 93.7438 124.147 93.4423 124.352 93.4543C124.557 93.4664 124.702 93.8443 124.67 94.2583Z" fill="white"/>
<path d="M148.295 82.4275L148.581 82.717L148.818 82.9662L149.268 83.4526C149.562 83.7782 149.839 84.1079 150.112 84.4375C150.667 85.0928 151.178 85.7762 151.68 86.4716C152.183 87.1671 152.653 87.8907 153.111 88.6304C153.569 89.3701 154 90.1339 154.398 90.9298C154.796 91.7258 155.178 92.5378 155.515 93.3941C155.856 94.2675 156.15 95.1585 156.396 96.0634C156.655 97.0119 156.846 97.9779 156.966 98.9537C157.088 99.9889 157.119 101.033 157.059 102.073L157.027 102.576C157.006 102.86 156.941 103.14 156.834 103.404C156.352 104.568 155.742 105.674 155.017 106.704C154.344 107.665 153.584 108.561 152.745 109.382C151.942 110.167 151.079 110.889 150.165 111.54C149.714 111.862 149.248 112.155 148.774 112.441C148.532 112.582 148.291 112.718 148.046 112.843L147.242 113.245C146.842 113.446 146.393 113.53 145.947 113.487C145.501 113.444 145.076 113.277 144.721 113.003C144.367 112.73 144.096 112.362 143.941 111.942C143.786 111.522 143.753 111.066 143.845 110.628L144.122 109.293C144.16 109.203 144.205 109.117 144.259 109.036L144.428 108.755L144.774 108.18C145.011 107.802 145.228 107.412 145.449 107.03C145.67 106.648 145.875 106.266 146.08 105.888C146.285 105.51 146.482 105.137 146.651 104.759C147.324 103.43 147.811 102.015 148.098 100.554L147.873 101.88C147.824 101.403 147.741 100.93 147.624 100.465C147.491 99.9447 147.328 99.432 147.137 98.9296C146.941 98.407 146.691 97.8724 146.426 97.3216C146.161 96.7709 145.863 96.2362 145.546 95.7136C144.898 94.6363 144.179 93.5468 143.391 92.4976C142.989 91.963 142.587 91.4444 142.185 90.9258L141.558 90.154L141.003 89.4947L140.798 89.2495C139.961 88.245 139.543 86.9562 139.632 85.6515C139.722 84.3468 140.311 83.1269 141.277 82.2459C142.244 81.3649 143.513 80.8909 144.82 80.9224C146.128 80.954 147.372 81.4888 148.295 82.4155V82.4275Z" fill="#FFC3BD"/>
<path d="M141.329 76.084C151.684 79.702 157.332 96.4011 157.332 96.4011C156.283 99.4 150.454 101.293 146.985 100.96C146.985 100.96 136.468 89.1088 135.025 83.9833C133.687 79.2397 136.613 74.4117 141.329 76.084Z" fill="#263238"/>
<path d="M145.256 99.5366C145.94 100.67 146.462 101.502 147.475 101.728C148.508 101.603 156.022 101 157.332 99.7376C158.643 98.4753 157.859 95.9588 156.93 93.7398C153.196 92.7307 149.895 97.9969 145.256 99.5366Z" fill="#263238"/>
<path opacity="0.2" d="M145.256 99.5366C145.94 100.67 146.462 101.502 147.475 101.728C148.508 101.603 156.022 101 157.332 99.7376C158.643 98.4753 157.859 95.9588 156.93 93.7398C153.196 92.7307 149.895 97.9969 145.256 99.5366Z" fill="white"/>
<path d="M146.076 108.879L147.282 111.548C147.483 114.624 143.483 114.194 143.483 114.194L141.473 114.764C141.113 114.842 140.738 114.789 140.413 114.615C140.088 114.441 139.836 114.158 139.7 113.816L138.84 111.954C138.636 111.584 138.586 111.148 138.701 110.741C138.816 110.334 139.087 109.988 139.455 109.78L141.103 109.004C141.581 108.779 142.108 108.675 142.635 108.702L146.076 108.879Z" fill="#FFC3BD"/>
<path d="M135.178 96.4412L132.436 95.8302C132.254 95.788 132.096 95.6757 131.996 95.5177C131.896 95.3597 131.862 95.1687 131.902 94.986V94.986C131.943 94.8031 132.055 94.6439 132.213 94.543C132.371 94.4421 132.563 94.4077 132.746 94.4473L135.488 95.0583C135.671 95.1005 135.83 95.2134 135.93 95.3723C136.03 95.5312 136.063 95.7232 136.022 95.9066V95.9066C135.981 96.0893 135.869 96.2482 135.711 96.3484C135.552 96.4486 135.361 96.482 135.178 96.4412V96.4412Z" fill="white"/>
<path d="M133.007 98.2502L133.12 95.0342C133.13 94.8244 133.219 94.6261 133.367 94.4776C133.516 94.329 133.714 94.2409 133.924 94.2302V94.2302C134.027 94.2301 134.13 94.2511 134.225 94.292C134.32 94.3329 134.406 94.3929 134.477 94.4682C134.548 94.5435 134.603 94.6325 134.639 94.7299C134.674 94.8272 134.69 94.9308 134.684 95.0342L134.571 98.2502C134.56 98.46 134.472 98.6584 134.324 98.8069C134.175 98.9554 133.977 99.0435 133.767 99.0542V99.0542C133.663 99.0544 133.561 99.0334 133.466 98.9925C133.37 98.9515 133.285 98.8916 133.213 98.8163C133.142 98.741 133.087 98.6519 133.052 98.5546C133.016 98.4572 133.001 98.3537 133.007 98.2502V98.2502Z" fill="white"/>
<path d="M136.951 75.1312C136.054 76.0639 133.124 81.6316 132.85 95.0624C132.848 95.1005 132.858 95.1383 132.878 95.1707C132.898 95.2031 132.928 95.2284 132.963 95.2433C133.564 95.4619 134.181 95.6339 134.808 95.7579C134.835 95.7638 134.863 95.7638 134.889 95.7577C134.916 95.7516 134.941 95.7397 134.963 95.7228C134.984 95.7058 135.002 95.6843 135.014 95.6598C135.026 95.6353 135.033 95.6084 135.033 95.581C135.118 93.768 135.805 81.1693 139.001 75.6458C139.015 75.6218 139.023 75.595 139.025 75.5673C139.028 75.5397 139.024 75.5119 139.014 75.486C139.003 75.4601 138.988 75.4369 138.967 75.4179C138.947 75.3989 138.923 75.3848 138.896 75.3765C138.31 75.1849 137.697 75.0845 137.079 75.079C137.056 75.0781 137.032 75.0823 137.01 75.0913C136.987 75.1003 136.967 75.1139 136.951 75.1312Z" fill="#6777EF"/>
<path d="M115.882 182.895C115.572 179.848 116.899 171.953 116.899 171.953L108.361 171.358C108.361 171.358 109.313 181.589 108.361 182.719C107.038 183.659 103.472 184.222 103.472 184.222C103.472 184.222 103.022 185.428 103.295 186.316H115.613C115.729 186.317 115.844 186.29 115.949 186.24C116.053 186.189 116.145 186.115 116.217 186.024C116.289 185.933 116.34 185.826 116.364 185.712C116.389 185.599 116.388 185.481 116.36 185.368C116.147 184.555 115.987 183.729 115.882 182.895V182.895Z" fill="#263238"/>
<path d="M143.696 182.895C142.945 179.848 143.142 171.953 143.142 171.953L134.515 171.358C134.515 171.358 136.927 181.589 136.147 182.719C135.335 183.336 134.447 183.848 133.506 184.242C133.35 184.938 133.391 185.663 133.626 186.337H143.371C143.495 186.332 143.617 186.302 143.729 186.249C143.841 186.196 143.941 186.12 144.023 186.027C144.104 185.933 144.166 185.824 144.204 185.706C144.242 185.588 144.255 185.463 144.243 185.34C144.104 184.516 143.922 183.7 143.696 182.895V182.895Z" fill="#263238"/>
<path d="M108.276 117.132C108.276 117.132 107.874 118.804 108.453 120.143C117.402 122.555 136.774 121.751 144.798 120.039C144.894 119.018 144.722 117.99 144.299 117.056C144.299 117.056 133.787 118.724 123.657 118.471C113.526 118.218 108.276 117.132 108.276 117.132Z" fill="#263238"/>
<path d="M114.467 116.991C113.916 118.467 114.182 121.341 114.467 121.868C115.81 122.342 116.28 122.193 116.28 122.193C116.28 122.193 115.846 118.616 116.28 117.237C115.698 117.034 115.082 116.951 114.467 116.991V116.991Z" fill="#6777EF"/>
<path d="M134.374 117.538C134.925 119.01 134.659 121.888 134.374 122.415C133.031 122.885 132.561 122.74 132.561 122.74C132.561 122.74 132.995 119.162 132.561 117.783C133.143 117.581 133.759 117.498 134.374 117.538Z" fill="#6777EF"/>
<path d="M132.766 60.2533C131.19 60.1849 126.993 58.991 126.993 58.991C127.364 58.7409 127.788 58.5799 128.231 58.5206C126.125 58.5568 125.015 59.598 122.037 59.0111C122.475 58.2071 124.851 57.0332 127.93 57.5478C129.801 57.8777 131.506 58.8312 132.766 60.2533V60.2533Z" fill="#263238"/>
<path d="M86.5762 74.4076C84.8677 73.2459 84.6426 74.9624 84.6426 74.9624C84.6426 83.722 90.5801 177.223 91.1228 185.713C91.1189 185.865 91.1722 186.012 91.272 186.126C91.3718 186.24 91.5109 186.312 91.6615 186.328H92.566C92.6451 186.319 92.7214 186.293 92.7903 186.253C92.8592 186.213 92.9193 186.16 92.967 186.096C93.0147 186.032 93.049 185.959 93.0678 185.882C93.0866 185.804 93.0896 185.724 93.0765 185.645C92.5017 176.709 86.5561 83.1471 86.5762 74.4076Z" fill="#6777EF"/>
<path d="M86.0255 82.7371C85.6563 82.7562 85.2866 82.7127 84.932 82.6084C84.8254 82.5714 84.7331 82.5018 84.6682 82.4095C84.6033 82.3171 84.569 82.2067 84.5702 82.0939C84.4737 80.3371 84.0959 73.5835 83.9833 72.6429C81.7281 72.9042 78.5201 74.0539 76.8317 66.7415C75.1433 59.4291 75.0147 50.7138 74.472 47.8877C76.5141 49.8052 77.5553 57.9859 78.2789 62.1386C79.0025 66.2913 80.0196 68.1927 81.6396 68.1284C83.2597 68.0641 84.4536 66.641 83.8064 61.4512C83.1592 56.2614 81.31 46.0224 80.715 44.0566C82.7049 44.9169 85.3421 54.187 86.1541 61.9255C86.9661 69.664 89.3701 68.0038 90.6083 66.641C91.8464 65.2782 89.7721 50.36 89.0525 47.2324C90.9057 50.2595 91.4645 53.4835 92.3288 59.7346C93.1931 65.9857 94.7408 72.3896 86.8496 72.2891C87.0063 74.0901 87.3078 80.2165 87.3923 82.0095C87.4094 82.1332 87.3809 82.259 87.3121 82.3633C87.2433 82.4676 87.1389 82.5433 87.0184 82.5763L86.0255 82.7371Z" fill="#6777EF"/>
<path opacity="0.6" d="M86.0255 82.7371C85.6563 82.7562 85.2866 82.7127 84.932 82.6084C84.8254 82.5714 84.7331 82.5018 84.6682 82.4095C84.6033 82.3171 84.569 82.2067 84.5702 82.0939C84.4737 80.3371 84.0959 73.5835 83.9833 72.6429C81.7281 72.9042 78.5201 74.0539 76.8317 66.7415C75.1433 59.4291 75.0147 50.7138 74.472 47.8877C76.5141 49.8052 77.5553 57.9859 78.2789 62.1386C79.0025 66.2913 80.0196 68.1927 81.6396 68.1284C83.2597 68.0641 84.4536 66.641 83.8064 61.4512C83.1592 56.2614 81.31 46.0224 80.715 44.0566C82.7049 44.9169 85.3421 54.187 86.1541 61.9255C86.9661 69.664 89.3701 68.0038 90.6083 66.641C91.8464 65.2782 89.7721 50.36 89.0525 47.2324C90.9057 50.2595 91.4645 53.4835 92.3288 59.7346C93.1931 65.9857 94.7408 72.3896 86.8496 72.2891C87.0063 74.0901 87.3078 80.2165 87.3923 82.0095C87.4094 82.1332 87.3809 82.259 87.3121 82.3633C87.2433 82.4676 87.1389 82.5433 87.0184 82.5763L86.0255 82.7371Z" fill="white"/>
</svg>
